{
.appVersion = "3091";
.formatVersion = 3;
DisplayStrings = (
"/Placeholder/Placeholder/Placeholder/Placeholder 
/Placeholder/Placeholder/Placeholder/Placeholder 
BNCLISA

/Placeholder oo/Placeholder o/Placeholder/Placeholder o
/Placeholder nn/Placeholder n/Placeholder/Placeholder n
bnchlio",
"the quick brown fox jump over the lazy dog
THE QUICK BROWN FOX JUMPS OVER THE LAZY DOG",

glyphs = (
{
glyphname = A;
lastChange = "2021-07-06 21:22:20 +0000";
layers = (
{
layerId = "65988B1E-DCE2-4AC3-A6FF-994A1050067D";
shapes = (
{
closed = 1;
nodes = (
(88,-5,o),
(104,6,o),
(109,21,cs),
(325,620,l),
(304,620,l),
(519,21,ls),
(524,6,o),
(540,-5,o),
(557,-5,cs),
(579,-5,o),
(598,14,o),
(598,36,cs),
(598,42,o),
(597,47,o),
(595,52,cs),
(363,664,ls),
(351,695,o),
(333,710,o),
(314,710,cs),
(295,710,o),
(277,695,o),
(265,664,cs),
(33,52,ls),
(31,47,o),
(30,42,o),
(30,36,cs),
(30,14,o),
(49,-5,o),
(71,-5,cs)
);
},
{
closed = 1;
nodes = (
(488,202,l),
(488,276,l),
(134,276,l),
(134,202,l)
);
}
);
width = 628;
}
);
unicode = 65;
},
{
glyphname = A.ss01;
lastChange = "2021-07-07 16:41:26 +0000";
layers = (
{
layerId = "65988B1E-DCE2-4AC3-A6FF-994A1050067D";
shapes = (
{
closed = 1;
nodes = (
(88,-15,o),
(103,-4,o),
(109,11,cs),
(335,620,l),
(314,620,l),
(539,11,ls),
(544,-4,o),
(560,-15,o),
(577,-15,cs),
(599,-15,o),
(618,4,o),
(618,26,cs),
(618,32,o),
(617,37,o),
(615,42,cs),
(373,664,ls),
(361,695,o),
(343,710,o),
(324,710,cs),
(305,710,o),
(287,695,o),
(275,664,cs),
(33,42,ls),
(31,37,o),
(30,32,o),
(30,26,cs),
(30,4,o),
(49,-15,o),
(71,-15,cs)
);
},
{
closed = 1;
nodes = (
(498,193,l),
(498,267,l),
(144,267,l),
(144,193,l)
);
}
);
width = 648;
}
);
},
{
glyphname = B;
lastChange = "2021-07-06 21:22:20 +0000";
layers = (
{
background = {
shapes = (
{
closed = 1;
nodes = (
(121,700,ls),
(98,701,o),
(80,682,o),
(80,659,cs),
(80,41,ls),
(80,18,o),
(98,0,o),
(121,0,cs),
(162,0,l),
(162,698,l)
);
},
{
closed = 1;
nodes = (
(334,624,ls),
(397,624,o),
(438,584,o),
(438,522,cs),
(438,459,o),
(393,418,o),
(324,418,cs),
(133,418,l),
(133,342,l),
(338,342,ls),
(415,342,o),
(467,288,o),
(467,209,cs),
(467,128,o),
(416,76,o),
(334,76,cs),
(131,76,l),
(131,0,l),
(353,0,ls),
(469,0,o),
(548,95,o),
(548,209,cs),
(548,282,o),
(506,354,o),
(438,384,c),
(485,415,o),
(519,466,o),
(519,522,cs),
(519,622,o),
(440,700,o),
(339,700,cs),
(131,700,l),
(131,624,l)
);
},
{
closed = 1;
nodes = (
(162,664,ls),
(162,687,o),
(144,705,o),
(121,705,cs),
(98,705,o),
(80,687,o),
(80,664,cs),
(80,36,ls),
(80,13,o),
(98,-5,o),
(121,-5,cs),
(144,-5,o),
(162,13,o),
(162,36,cs)
);
},
{
closed = 1;
nodes = (
(586,664,ls),
(586,687,o),
(568,705,o),
(545,705,cs),
(522,705,o),
(504,687,o),
(504,664,cs),
(504,36,ls),
(504,13,o),
(522,-5,o),
(545,-5,cs),
(568,-5,o),
(586,13,o),
(586,36,cs)
);
},
{
closed = 1;
nodes = (
(121,408,l),
(121,332,l),
(545,332,l),
(545,408,l)
);
},
{
closed = 1;
nodes = (
(162,664,ls),
(162,687,o),
(144,705,o),
(121,705,cs),
(98,705,o),
(80,687,o),
(80,664,cs),
(80,36,ls),
(80,13,o),
(98,-5,o),
(121,-5,cs),
(144,-5,o),
(162,13,o),
(162,36,cs)
);
},
{
closed = 1;
nodes = (
(586,664,ls),
(586,687,o),
(568,705,o),
(545,705,cs),
(522,705,o),
(504,687,o),
(504,664,cs),
(504,36,ls),
(504,13,o),
(522,-5,o),
(545,-5,cs),
(568,-5,o),
(586,13,o),
(586,36,cs)
);
},
{
closed = 1;
nodes = (
(121,408,l),
(121,332,l),
(545,332,l),
(545,408,l)
);
}
);
};
layerId = "65988B1E-DCE2-4AC3-A6FF-994A1050067D";
shapes = (
{
closed = 1;
nodes = (
(121,700,ls),
(98,701,o),
(80,682,o),
(80,659,cs),
(80,41,ls),
(80,18,o),
(98,0,o),
(121,0,cs),
(162,0,l),
(162,698,l)
);
},
{
closed = 1;
nodes = (
(334,624,ls),
(397,624,o),
(438,584,o),
(438,522,cs),
(438,459,o),
(393,418,o),
(324,418,cs),
(133,418,l),
(133,342,l),
(338,342,ls),
(415,342,o),
(467,288,o),
(467,209,cs),
(467,128,o),
(416,76,o),
(334,76,cs),
(131,76,l),
(131,0,l),
(353,0,ls),
(469,0,o),
(548,95,o),
(548,209,cs),
(548,282,o),
(506,354,o),
(438,384,c),
(485,415,o),
(519,466,o),
(519,522,cs),
(519,622,o),
(440,700,o),
(339,700,cs),
(131,700,l),
(131,624,l)
);
}
);
width = 608;
}
);
unicode = 66;
},
{
glyphname = B.ss01;
lastChange = "2021-07-07 17:32:18 +0000";
layers = (
{
background = {
shapes = (
{
closed = 0;
nodes = (
(162,0,l),
(162,698,l)
);
},
{
closed = 1;
nodes = (
(364,624,ls),
(427,624,o),
(468,584,o),
(468,522,cs),
(468,459,o),
(423,418,o),
(354,418,cs),
(133,418,l),
(133,342,l),
(368,342,ls),
(445,342,o),
(497,288,o),
(497,209,cs),
(497,128,o),
(446,76,o),
(364,76,cs),
(131,76,l),
(131,0,l),
(383,0,ls),
(499,0,o),
(578,95,o),
(578,209,cs),
(578,282,o),
(536,354,o),
(468,384,c),
(515,415,o),
(549,466,o),
(549,522,cs),
(549,622,o),
(470,700,o),
(369,700,cs),
(131,700,l),
(131,624,l)
);
},
{
closed = 1;
nodes = (
(121,700,ls),
(98,701,o),
(80,682,o),
(80,659,cs),
(80,41,ls),
(80,18,o),
(98,0,o),
(121,0,cs),
(162,0,l),
(162,698,l)
);
}
);
};
layerId = "65988B1E-DCE2-4AC3-A6FF-994A1050067D";
shapes = (
{
closed = 1;
nodes = (
(80,18,o),
(98,0,o),
(121,0,cs),
(383,0,ls),
(499,0,o),
(578,95,o),
(578,209,cs),
(578,282,o),
(536,354,o),
(468,384,c),
(515,415,o),
(549,466,o),
(549,522,cs),
(549,622,o),
(470,700,o),
(369,700,cs),
(131,700,l),
(121,700,ls),
(98,701,o),
(80,682,o),
(80,659,cs),
(80,41,ls)
);
},
{
closed = 1;
nodes = (
(162,342,l),
(368,342,ls),
(445,342,o),
(497,288,o),
(497,209,cs),
(497,128,o),
(446,76,o),
(364,76,cs),
(162,76,l)
);
},
{
closed = 1;
nodes = (
(162,624,l),
(364,624,ls),
(427,624,o),
(468,584,o),
(468,522,cs),
(468,459,o),
(423,418,o),
(354,418,cs),
(162,418,l)
);
}
);
width = 608;
}
);
},
{
glyphname = C;
lastChange = "2021-07-06 21:22:20 +0000";
layers = (
{
background = {
shapes = (
{
closed = 1;
nodes = (
(554,179,o),
(478,58,o),
(346,58,cs),
(215,58,o),
(139,179,o),
(139,350,cs),
(139,521,o),
(215,643,o),
(346,643,cs),
(478,643,o),
(554,521,o),
(554,350,cs)
);
},
{
closed = 1;
nodes = (
(631,571,o),
(528,715,o),
(346,715,cs),
(175,715,o),
(57,571,o),
(57,350,cs),
(57,130,o),
(165,-14,o),
(346,-14,cs),
(528,-14,o),
(631,130,o),
(631,350,cs)
);
},
{
closed = 1;
nodes = (
(453,-18,o),
(548,88,o),
(562,188,cs),
(564,212,o),
(545,232,o),
(520,232,cs),
(501,232,o),
(484,219,o),
(480,201,cs),
(456,102,o),
(396,66,o),
(329,66,cs),
(199,66,o),
(139,179,o),
(139,350,cs),
(139,521,o),
(187,634,o),
(326,634,cs),
(397,634,o),
(450,594,o),
(463,543,cs),
(469,525,o),
(484,513,o),
(503,513,cs),
(527,513,o),
(546,533,o),
(544,557,cs),
(536,640,o),
(434,718,o),
(326,718,cs),
(129,718,o),
(55,545,o),
(55,350,cs),
(55,153,o),
(144,-18,o),
(329,-18,cs)
);
},
{
closed = 1;
nodes = (
(409,639,o),
(446,600,o),
(466,552,cs),
(472,538,o),
(486,528,o),
(502,528,cs),
(523,528,o),
(541,546,o),
(541,567,cs),
(541,571,o),
(539,577,o),
(537,582,cs),
(508,651,o),
(444,714,o),
(330,714,cs),
(132,714,o),
(60,538,o),
(60,346,cs),
(60,145,o),
(146,-18,o),
(332,-16,cs),
(437,-15,o),
(525,46,o),
(561,184,cs),
(567,210,o),
(547,235,o),
(521,235,cs),
(502,235,o),
(486,222,o),
(481,204,cs),
(457,103,o),
(409,62,o),
(332,61,cs),
(202,59,o),
(142,180,o),
(142,346,cs),
(142,512,o),
(193,639,o),
(336,639,cs)
);
}
);
};
layerId = "65988B1E-DCE2-4AC3-A6FF-994A1050067D";
shapes = (
{
closed = 1;
nodes = (
(573,216,o),
(554,237,o),
(529,237,cs),
(509,237,o),
(495,222,o),
(491,203,cs),
(473,121,o),
(409,62,o),
(340,62,cs),
(214,62,o),
(141,168,o),
(141,350,cs),
(141,534,o),
(214,640,o),
(338,640,cs),
(407,640,o),
(462,593,o),
(476,541,cs),
(480,523,o),
(496,510,o),
(515,510,cs),
(537,510,o),
(556,529,o),
(556,551,cs),
(556,555,o),
(555,559,o),
(554,563,cs),
(528,648,o),
(437,715,o),
(338,715,cs),
(162,715,o),
(59,581,o),
(59,350,cs),
(59,120,o),
(162,-13,o),
(332,-13,cs),
(445,-13,o),
(540,75,o),
(565,180,c)
);
},
{
closed = 1;
nodes = (
(573,216,o),
(554,237,o),
(529,237,cs),
(509,237,o),
(495,222,o),
(491,203,cs),
(473,121,o),
(409,62,o),
(340,62,cs),
(214,62,o),
(141,168,o),
(141,350,cs),
(141,534,o),
(214,640,o),
(338,640,cs),
(407,640,o),
(462,593,o),
(476,541,cs),
(480,523,o),
(496,510,o),
(515,510,cs),
(537,510,o),
(556,529,o),
(556,551,cs),
(556,555,o),
(555,559,o),
(554,563,cs),
(528,648,o),
(437,715,o),
(338,715,cs),
(162,715,o),
(59,581,o),
(59,350,cs),
(59,120,o),
(162,-13,o),
(332,-13,cs),
(445,-13,o),
(540,75,o),
(565,180,c)
);
}
);
width = 622;
}
);
unicode = 67;
},
{
glyphname = C.ss01;
lastChange = "2021-07-06 21:22:20 +0000";
layers = (
{
layerId = "65988B1E-DCE2-4AC3-A6FF-994A1050067D";
shapes = (
{
closed = 1;
nodes = (
(575,622,o),
(483,716,o),
(346,716,cs),
(173,716,o),
(60,557,o),
(60,350,cs),
(60,138,o),
(176,-14,o),
(346,-14,cs),
(475,-14,o),
(586,80,o),
(599,224,cs),
(601,247,o),
(584,270,o),
(559,270,cs),
(539,270,o),
(524,255,o),
(521,236,cs),
(505,132,o),
(446,63,o),
(356,63,cs),
(234,63,o),
(143,170,o),
(143,350,cs),
(143,518,o),
(228,640,o),
(346,640,cs),
(428,640,o),
(490,581,o),
(504,512,cs),
(508,490,o),
(522,472,o),
(544,472,cs),
(566,472,o),
(587,490,o),
(584,519,cs)
);
}
);
width = 654;
}
);
},
{
glyphname = D;
lastChange = "2021-07-06 21:22:20 +0000";
layers = (
{
background = {
shapes = (
{
closed = 1;
nodes = (
(162,664,ls),
(162,687,o),
(144,705,o),
(121,705,cs),
(98,705,o),
(80,687,o),
(80,664,cs),
(80,36,ls),
(80,13,o),
(98,-5,o),
(121,-5,cs),
(144,-5,o),
(162,13,o),
(162,36,cs)
);
},
{
closed = 1;
nodes = (
(586,664,ls),
(586,687,o),
(568,705,o),
(545,705,cs),
(522,705,o),
(504,687,o),
(504,664,cs),
(504,36,ls),
(504,13,o),
(522,-5,o),
(545,-5,cs),
(568,-5,o),
(586,13,o),
(586,36,cs)
);
},
{
closed = 1;
nodes = (
(121,408,l),
(121,332,l),
(545,332,l),
(545,408,l)
);
}
);
};
layerId = "65988B1E-DCE2-4AC3-A6FF-994A1050067D";
shapes = (
{
closed = 1;
nodes = (
(296,0,ls),
(482,0,o),
(587,124,o),
(587,354,cs),
(587,540,o),
(497,700,o),
(313,700,cs),
(157,700,l),
(157,624,l),
(313,624,ls),
(444,624,o),
(505,507,o),
(505,354,cs),
(505,166,o),
(438,76,o),
(293,76,cs),
(157,76,l),
(157,0,l)
);
},
{
closed = 1;
nodes = (
(162,700,l),
(121,700,ls),
(98,700,o),
(80,682,o),
(80,659,cs),
(80,41,ls),
(80,18,o),
(98,0,o),
(121,0,cs),
(162,0,l)
);
}
);
width = 647;
}
);
unicode = 68;
},
{
glyphname = E;
lastChange = "2021-07-07 17:06:52 +0000";
layers = (
{
layerId = "65988B1E-DCE2-4AC3-A6FF-994A1050067D";
shapes = (
{
closed = 1;
nodes = (
(122,700,l),
(122,624,l),
(439,624,ls),
(460,624,o),
(477,641,o),
(477,662,cs),
(477,683,o),
(460,700,o),
(439,700,cs)
);
},
{
closed = 1;
nodes = (
(122,402,l),
(122,326,l),
(418,326,ls),
(439,326,o),
(456,343,o),
(456,364,cs),
(456,385,o),
(439,402,o),
(418,402,cs)
);
},
{
closed = 1;
nodes = (
(122,76,l),
(122,0,l),
(466,0,ls),
(487,0,o),
(504,17,o),
(504,38,cs),
(504,59,o),
(487,76,o),
(466,76,cs)
);
},
{
closed = 1;
nodes = (
(162,700,l),
(121,700,l),
(98,700,o),
(80,682,o),
(80,659,cs),
(80,41,ls),
(80,18,o),
(98,0,o),
(121,0,c),
(162,0,l)
);
}
);
width = 564;
}
);
unicode = 69;
},
{
glyphname = E.ss01;
lastChange = "2021-07-06 21:29:02 +0000";
layers = (
{
background = {
shapes = (
{
closed = 1;
nodes = (
(162,664,ls),
(162,687,o),
(144,705,o),
(121,705,cs),
(98,705,o),
(80,687,o),
(80,664,cs),
(80,36,ls),
(80,13,o),
(98,-5,o),
(121,-5,cs),
(144,-5,o),
(162,13,o),
(162,36,cs)
);
},
{
closed = 1;
nodes = (
(586,664,ls),
(586,687,o),
(568,705,o),
(545,705,cs),
(522,705,o),
(504,687,o),
(504,664,cs),
(504,36,ls),
(504,13,o),
(522,-5,o),
(545,-5,cs),
(568,-5,o),
(586,13,o),
(586,36,cs)
);
},
{
closed = 1;
nodes = (
(121,408,l),
(121,332,l),
(545,332,l),
(545,408,l)
);
}
);
};
layerId = "65988B1E-DCE2-4AC3-A6FF-994A1050067D";
shapes = (
{
closed = 1;
nodes = (
(122,700,l),
(122,624,l),
(502,624,ls),
(523,624,o),
(540,641,o),
(540,662,cs),
(540,683,o),
(523,700,o),
(502,700,cs)
);
},
{
closed = 1;
nodes = (
(122,402,l),
(122,326,l),
(402,326,ls),
(423,326,o),
(440,343,o),
(440,364,cs),
(440,385,o),
(423,402,o),
(402,402,cs)
);
},
{
closed = 1;
nodes = (
(120,76,l),
(120,0,l),
(502,0,ls),
(523,0,o),
(540,17,o),
(540,38,cs),
(540,59,o),
(523,76,o),
(502,76,cs)
);
},
{
closed = 1;
nodes = (
(162,700,l),
(121,700,l),
(98,700,o),
(80,682,o),
(80,659,cs),
(80,41,ls),
(80,18,o),
(98,0,o),
(121,0,c),
(162,0,l)
);
}
);
width = 585;
}
);
},
{
glyphname = F;
lastChange = "2021-07-07 16:42:00 +0000";
layers = (
{
layerId = "65988B1E-DCE2-4AC3-A6FF-994A1050067D";
shapes = (
{
closed = 1;
nodes = (
(122,700,l),
(122,624,l),
(439,624,ls),
(460,624,o),
(477,641,o),
(477,662,cs),
(477,683,o),
(460,700,o),
(439,700,cs)
);
},
{
closed = 1;
nodes = (
(122,397,l),
(122,321,l),
(418,321,ls),
(439,321,o),
(456,338,o),
(456,359,cs),
(456,380,o),
(439,397,o),
(418,397,cs)
);
},
{
closed = 1;
nodes = (
(162,700,l),
(121,700,l),
(98,700,o),
(80,682,o),
(80,659,cs),
(80,36,ls),
(80,13,o),
(98,-5,o),
(121,-5,cs),
(144,-5,o),
(162,13,o),
(162,36,cs)
);
}
);
width = 517;
}
);
unicode = 70;
},
{
glyphname = G;
lastChange = "2021-07-07 16:42:09 +0000";
layers = (
{
layerId = "65988B1E-DCE2-4AC3-A6FF-994A1050067D";
shapes = (
{
closed = 1;
nodes = (
(565,339,o),
(552,356,o),
(533,356,cs),
(377,358,ls),
(355,358,o),
(337,341,o),
(337,319,cs),
(337,298,o),
(354,280,o),
(375,280,cs),
(484,280,l),
(484,120,l),
(447,81,o),
(415,62,o),
(361,62,cs),
(229,62,o),
(142,181,o),
(142,350,cs),
(142,470,o),
(187,640,o),
(351,640,cs),
(424,640,o),
(461,601,o),
(481,553,cs),
(487,539,o),
(501,529,o),
(517,529,cs),
(538,529,o),
(556,547,o),
(556,568,cs),
(556,573,o),
(554,579,o),
(552,583,cs),
(523,652,o),
(459,715,o),
(345,715,cs),
(124,715,o),
(60,495,o),
(60,350,cs),
(60,137,o),
(177,-15,o),
(365,-15,cs),
(436,-15,o),
(504,11,o),
(565,96,c),
(565,315,ls)
);
}
);
width = 620;
}
);
unicode = 71;
},
{
glyphname = G.ss01;
lastChange = "2021-07-07 16:42:34 +0000";
layers = (
{
layerId = "65988B1E-DCE2-4AC3-A6FF-994A1050067D";
shapes = (
{
closed = 1;
nodes = (
(555,339,o),
(542,356,o),
(523,356,cs),
(367,358,ls),
(345,358,o),
(327,341,o),
(327,319,cs),
(327,298,o),
(344,280,o),
(365,280,cs),
(477,280,l),
(477,126,l),
(440,80,o),
(400,59,o),
(349,59,cs),
(171,59,o),
(142,278,o),
(142,350,cs),
(142,470,o),
(187,641,o),
(341,641,cs),
(414,641,o),
(451,601,o),
(471,553,cs),
(477,539,o),
(491,529,o),
(507,529,cs),
(528,529,o),
(546,547,o),
(546,568,cs),
(546,573,o),
(544,579,o),
(542,583,cs),
(513,652,o),
(449,715,o),
(335,715,cs),
(124,715,o),
(60,495,o),
(60,350,cs),
(60,133,o),
(178,-15,o),
(331,-15,cs),
(428,-15,o),
(510,28,o),
(555,103,c),
(555,315,ls)
);
}
);
width = 610;
}
);
},
{
glyphname = G.ss02;
lastChange = "2021-07-07 16:42:50 +0000";
layers = (
{
layerId = "65988B1E-DCE2-4AC3-A6FF-994A1050067D";
shapes = (
{
closed = 1;
nodes = (
(565,339,o),
(552,356,o),
(533,356,cs),
(377,358,ls),
(355,358,o),
(337,341,o),
(337,319,cs),
(337,298,o),
(354,280,o),
(375,280,cs),
(484,280,l),
(484,120,l),
(447,81,o),
(415,62,o),
(351,62,cs),
(219,62,o),
(132,181,o),
(132,350,cs),
(132,470,o),
(177,640,o),
(341,640,cs),
(414,640,o),
(451,601,o),
(471,553,cs),
(477,539,o),
(491,529,o),
(507,529,cs),
(528,529,o),
(546,547,o),
(546,568,cs),
(546,573,o),
(544,579,o),
(542,583,cs),
(513,652,o),
(449,715,o),
(335,715,cs),
(114,715,o),
(50,495,o),
(50,350,cs),
(50,138,o),
(176,-15,o),
(355,-15,cs),
(437,-15,o),
(505,11,o),
(566,96,c),
(565,315,ls)
);
}
);
width = 610;
}
);
},
{
glyphname = H;
lastChange = "2021-07-07 16:42:52 +0000";
layers = (
{
layerId = "65988B1E-DCE2-4AC3-A6FF-994A1050067D";
shapes = (
{
closed = 1;
nodes = (
(162,664,ls),
(162,687,o),
(144,705,o),
(121,705,cs),
(98,705,o),
(80,687,o),
(80,664,cs),
(80,36,ls),
(80,13,o),
(98,-5,o),
(121,-5,cs),
(144,-5,o),
(162,13,o),
(162,36,cs)
);
},
{
closed = 1;
nodes = (
(586,664,ls),
(586,687,o),
(568,705,o),
(545,705,cs),
(522,705,o),
(504,687,o),
(504,664,cs),
(504,36,ls),
(504,13,o),
(522,-5,o),
(545,-5,cs),
(568,-5,o),
(586,13,o),
(586,36,cs)
);
},
{
closed = 1;
nodes = (
(121,408,l),
(121,332,l),
(545,332,l),
(545,408,l)
);
}
);
width = 666;
}
);
unicode = 72;
},
{
glyphname = H.ss01;
lastChange = "2021-07-07 16:42:54 +0000";
layers = (
{
layerId = "65988B1E-DCE2-4AC3-A6FF-994A1050067D";
shapes = (
{
closed = 1;
nodes = (
(142,664,ls),
(142,687,o),
(124,705,o),
(101,705,cs),
(78,705,o),
(60,687,o),
(60,664,cs),
(60,36,ls),
(60,13,o),
(78,-5,o),
(101,-5,cs),
(124,-5,o),
(142,13,o),
(142,36,cs)
);
},
{
closed = 1;
nodes = (
(606,664,ls),
(606,687,o),
(588,705,o),
(565,705,cs),
(542,705,o),
(524,687,o),
(524,664,cs),
(524,36,ls),
(524,13,o),
(542,-5,o),
(565,-5,cs),
(588,-5,o),
(606,13,o),
(606,36,cs)
);
},
{
closed = 1;
nodes = (
(101,408,l),
(101,332,l),
(565,332,l),
(565,408,l)
);
}
);
width = 666;
}
);
},
{
glyphname = I;
lastChange = "2021-07-06 21:22:20 +0000";
layers = (
{
layerId = "65988B1E-DCE2-4AC3-A6FF-994A1050067D";
shapes = (
{
closed = 1;
nodes = (
(162,664,ls),
(162,687,o),
(144,705,o),
(121,705,cs),
(98,705,o),
(80,687,o),
(80,664,cs),
(80,36,ls),
(80,13,o),
(98,-5,o),
(121,-5,cs),
(144,-5,o),
(162,13,o),
(162,36,cs)
);
}
);
width = 242;
}
);
unicode = 73;
},
{
glyphname = J;
lastChange = "2021-07-06 21:22:20 +0000";
layers = (
{
layerId = "65988B1E-DCE2-4AC3-A6FF-994A1050067D";
shapes = (
{
closed = 1;
nodes = (
(35,186,ls),
(35,115,o),
(79,-14,o),
(232,-14,cs),
(373,-14,o),
(420,94,o),
(420,192,cs),
(420,664,ls),
(420,687,o),
(402,705,o),
(379,705,cs),
(356,705,o),
(338,687,o),
(338,664,cs),
(338,192,ls),
(338,120,o),
(315,65,o),
(232,65,cs),
(140,65,o),
(117,133,o),
(117,186,cs),
(117,203,ls),
(117,226,o),
(99,244,o),
(76,244,cs),
(53,244,o),
(35,226,o),
(35,203,cs)
);
}
);
width = 500;
}
);
unicode = 74;
},
{
glyphname = K;
lastChange = "2021-07-07 16:42:55 +0000";
layers = (
{
layerId = "65988B1E-DCE2-4AC3-A6FF-994A1050067D";
shapes = (
{
closed = 1;
nodes = (
(162,664,ls),
(162,687,o),
(144,705,o),
(121,705,cs),
(98,705,o),
(80,687,o),
(80,664,cs),
(80,36,ls),
(80,13,o),
(98,-5,o),
(121,-5,cs),
(144,-5,o),
(162,13,o),
(162,36,cs)
);
},
{
closed = 1;
nodes = (
(541,630,ls),
(549,638,o),
(553,648,o),
(553,659,cs),
(553,681,o),
(535,700,o),
(512,700,cs),
(501,700,o),
(491,695,o),
(484,688,cs),
(135,332,l),
(135,216,l)
);
},
{
closed = 1;
nodes = (
(497,11,ls),
(504,0,o),
(516,-7,o),
(530,-7,cs),
(553,-7,o),
(571,12,o),
(571,34,cs),
(571,43,o),
(568,51,o),
(563,58,cs),
(312,421,l),
(255,361,l)
);
}
);
width = 614;
}
);
unicode = 75;
},
{
glyphname = L;
lastChange = "2021-07-06 21:22:20 +0000";
layers = (
{
layerId = "65988B1E-DCE2-4AC3-A6FF-994A1050067D";
shapes = (
{
closed = 1;
nodes = (
(122,76,l),
(122,0,l),
(466,0,ls),
(487,0,o),
(504,17,o),
(504,38,cs),
(504,59,o),
(487,76,o),
(466,76,cs)
);
},
{
closed = 1;
nodes = (
(162,664,ls),
(162,687,o),
(144,705,o),
(121,705,cs),
(98,705,o),
(80,687,o),
(80,664,cs),
(80,41,ls),
(80,18,o),
(98,0,o),
(121,0,cs),
(162,0,l)
);
}
);
width = 534;
}
);
unicode = 76;
},
{
glyphname = M;
lastChange = "2021-07-07 16:42:57 +0000";
layers = (
{
layerId = "65988B1E-DCE2-4AC3-A6FF-994A1050067D";
shapes = (
{
closed = 1;
nodes = (
(376,80,l),
(614,679,ls),
(620,694,o),
(637,705,o),
(654,705,cs),
(684,705,o),
(702,687,o),
(702,664,cs),
(702,37,ls),
(702,14,o),
(684,-4,o),
(661,-4,cs),
(638,-4,o),
(620,14,o),
(620,37,cs),
(627,608,l),
(657,574,l),
(440,36,ls),
(428,5,o),
(410,-10,o),
(391,-10,cs),
(372,-10,o),
(354,5,o),
(342,36,cs),
(125,574,l),
(155,608,l),
(162,37,ls),
(162,14,o),
(144,-4,o),
(121,-4,cs),
(98,-4,o),
(80,14,o),
(80,37,cs),
(80,664,ls),
(80,687,o),
(98,705,o),
(128,705,cs),
(145,705,o),
(162,694,o),
(168,679,cs),
(406,80,l)
);
}
);
width = 782;
}
);
unicode = 77;
},
{
glyphname = M.ss01;
lastChange = "2021-07-07 16:42:59 +0000";
layers = (
{
layerId = "65988B1E-DCE2-4AC3-A6FF-994A1050067D";
shapes = (
{
closed = 1;
nodes = (
(396,80,l),
(664,679,ls),
(671,694,o),
(687,705,o),
(704,705,cs),
(734,705,o),
(752,687,o),
(752,664,cs),
(752,37,ls),
(752,14,o),
(734,-4,o),
(711,-4,cs),
(688,-4,o),
(670,14,o),
(670,37,cs),
(678,608,l),
(707,588,l),
(460,36,ls),
(446,5,o),
(430,-10,o),
(411,-10,cs),
(392,-10,o),
(375,5,o),
(362,36,cs),
(125,588,l),
(154,608,l),
(162,37,ls),
(162,14,o),
(144,-4,o),
(121,-4,cs),
(98,-4,o),
(80,14,o),
(80,37,cs),
(80,664,ls),
(80,687,o),
(98,705,o),
(128,705,cs),
(145,705,o),
(162,694,o),
(168,679,cs),
(426,80,l)
);
}
);
width = 832;
}
);
},
{
glyphname = N;
lastChange = "2021-07-07 16:43:00 +0000";
layers = (
{
layerId = "65988B1E-DCE2-4AC3-A6FF-994A1050067D";
shapes = (
{
closed = 1;
nodes = (
(483,10,o),
(495,-5,o),
(527,-5,cs),
(550,-5,o),
(568,13,o),
(568,36,c),
(568,664,ls),
(568,687,o),
(550,705,o),
(527,705,cs),
(504,705,o),
(486,687,o),
(486,664,cs),
(491,71,l),
(506,122,l),
(177,669,ls),
(164,690,o),
(153,705,o),
(121,705,c),
(98,705,o),
(80,687,o),
(80,664,cs),
(80,37,ls),
(80,14,o),
(98,-4,o),
(121,-4,cs),
(144,-4,o),
(162,14,o),
(162,37,cs),
(158,608,l),
(105,636,l),
(471,31,l)
);
}
);
width = 648;
}
);
unicode = 78;
},
{
glyphname = N.ss01;
lastChange = "2021-07-07 16:43:02 +0000";
layers = (
{
layerId = "65988B1E-DCE2-4AC3-A6FF-994A1050067D";
shapes = (
{
closed = 1;
nodes = (
(606,-4,o),
(624,13,o),
(624,36,cs),
(624,664,ls),
(624,687,o),
(606,705,o),
(583,705,cs),
(560,705,o),
(542,687,o),
(542,664,cs),
(542,71,l),
(556,113,l),
(183,669,ls),
(169,690,o),
(149,705,o),
(125,705,cs),
(98,705,o),
(80,687,o),
(80,664,cs),
(80,36,ls),
(80,13,o),
(98,-5,o),
(121,-5,cs),
(144,-5,o),
(162,13,o),
(162,36,cs),
(158,608,l),
(111,636,l),
(507,40,ls),
(520,20,o),
(543,-6,o),
(578,-5,cs)
);
}
);
width = 704;
}
);
},
{
glyphname = O;
lastChange = "2021-07-07 16:43:03 +0000";
layers = (
{
layerId = "65988B1E-DCE2-4AC3-A6FF-994A1050067D";
shapes = (
{
closed = 1;
nodes = (
(168,-14,o),
(60,130,o),
(60,350,cs),
(60,571,o),
(178,715,o),
(344,715,cs),
(510,715,o),
(628,571,o),
(628,350,cs),
(628,130,o),
(520,-14,o),
(344,-14,c)
);
},
{
closed = 1;
nodes = (
(218,640,o),
(142,521,o),
(142,350,cs),
(142,179,o),
(218,61,o),
(344,61,cs),
(470,61,o),
(546,179,o),
(546,350,cs),
(546,521,o),
(470,640,o),
(344,640,cs)
);
}
);
width = 688;
}
);
unicode = 79;
},
{
glyphname = O.ss01;
lastChange = "2021-07-07 17:07:57 +0000";
layers = (
{
background = {
shapes = (
{
closed = 1;
nodes = (
(557,179,o),
(481,58,o),
(349,58,cs),
(218,58,o),
(142,179,o),
(142,350,cs),
(142,521,o),
(218,643,o),
(349,643,cs),
(481,643,o),
(557,521,o),
(557,350,cs)
);
},
{
closed = 1;
nodes = (
(634,571,o),
(531,715,o),
(349,715,cs),
(178,715,o),
(60,571,o),
(60,350,cs),
(60,130,o),
(168,-14,o),
(349,-14,cs),
(531,-14,o),
(634,130,o),
(634,350,cs)
);
},
{
closed = 1;
nodes = (
(532,179,o),
(463,61,o),
(341,61,cs),
(220,61,o),
(146,179,o),
(146,350,cs),
(146,521,o),
(220,640,o),
(341,640,cs),
(463,640,o),
(532,521,o),
(532,350,cs)
);
},
{
closed = 1;
nodes = (
(618,571,o),
(513,715,o),
(341,715,cs),
(170,715,o),
(60,571,o),
(60,350,cs),
(60,130,o),
(168,-14,o),
(339,-14,cs),
(511,-14,o),
(618,130,o),
(618,350,cs)
);
}
);
};
layerId = "65988B1E-DCE2-4AC3-A6FF-994A1050067D";
shapes = (
{
closed = 1;
nodes = (
(532,179,o),
(463,61,o),
(341,61,cs),
(220,61,o),
(146,179,o),
(146,350,cs),
(146,521,o),
(220,640,o),
(341,640,cs),
(463,640,o),
(532,521,o),
(532,350,cs)
);
},
{
closed = 1;
nodes = (
(618,571,o),
(513,715,o),
(341,715,cs),
(170,715,o),
(60,571,o),
(60,350,cs),
(60,130,o),
(168,-14,o),
(339,-14,cs),
(511,-14,o),
(618,130,o),
(618,350,cs)
);
}
);
width = 694;
}
);
},
{
glyphname = P;
lastChange = "2021-07-07 16:43:06 +0000";
layers = (
{
layerId = "65988B1E-DCE2-4AC3-A6FF-994A1050067D";
shapes = (
{
closed = 1;
nodes = (
(162,700,l),
(121,700,l),
(98,700,o),
(80,682,o),
(80,659,cs),
(80,36,ls),
(80,13,o),
(98,-5,o),
(121,-5,cs),
(144,-5,o),
(162,13,o),
(162,36,cs)
);
},
{
closed = 1;
nodes = (
(374,288,ls),
(479,288,o),
(563,375,o),
(563,494,cs),
(563,613,o),
(476,700,o),
(357,700,cs),
(121,700,l),
(121,622,l),
(357,622,ls),
(433,622,o),
(482,570,o),
(482,494,cs),
(482,418,o),
(433,366,o),
(357,366,cs),
(121,366,l),
(121,288,l)
);
}
);
width = 608;
}
);
unicode = 80;
},
{
glyphname = P.ss01;
lastChange = "2021-07-07 16:43:07 +0000";
layers = (
{
layerId = "65988B1E-DCE2-4AC3-A6FF-994A1050067D";
shapes = (
{
closed = 1;
nodes = (
(162,700,l),
(121,700,l),
(98,700,o),
(80,682,o),
(80,659,cs),
(80,36,ls),
(80,13,o),
(98,-5,o),
(121,-5,cs),
(144,-5,o),
(162,13,o),
(162,36,cs)
);
},
{
closed = 1;
nodes = (
(384,288,ls),
(489,288,o),
(573,375,o),
(573,494,cs),
(573,613,o),
(486,700,o),
(367,700,cs),
(121,700,ls),
(99,700,o),
(82,683,o),
(82,661,cs),
(82,639,o),
(99,622,o),
(121,622,cs),
(367,622,ls),
(443,622,o),
(492,570,o),
(492,494,cs),
(492,418,o),
(443,366,o),
(367,366,cs),
(121,366,ls),
(99,366,o),
(82,349,o),
(82,327,cs),
(82,305,o),
(99,288,o),
(121,288,cs)
);
}
);
width = 618;
}
);
},
{
glyphname = Q;
lastChange = "2021-07-07 16:43:09 +0000";
layers = (
{
layerId = "65988B1E-DCE2-4AC3-A6FF-994A1050067D";
shapes = (
{
closed = 1;
nodes = (
(557,179,o),
(481,58,o),
(349,58,cs),
(218,58,o),
(142,179,o),
(142,350,cs),
(142,521,o),
(218,643,o),
(349,643,cs),
(481,643,o),
(557,521,o),
(557,350,cs)
);
},
{
closed = 1;
nodes = (
(634,571,o),
(531,715,o),
(349,715,cs),
(178,715,o),
(60,571,o),
(60,350,cs),
(60,130,o),
(168,-14,o),
(349,-14,cs),
(531,-14,o),
(634,130,o),
(634,350,cs)
);
},
{
closed = 1;
nodes = (
(594,63,o),
(598,56,o),
(584,56,cs),
(553,56,o),
(531,93,o),
(504,140,cs),
(477,187,o),
(454,228,o),
(409,228,cs),
(385,228,o),
(363,215,o),
(363,189,cs),
(363,166,o),
(382,150,o),
(406,150,cs),
(422,150,o),
(422,138,o),
(442,101,cs),
(478,39,o),
(513,-20,o),
(584,-20,cs),
(607,-20,o),
(649,-11,o),
(649,24,cs),
(649,45,o),
(632,63,o),
(610,63,cs)
);
}
);
width = 686;
}
);
unicode = 81;
},
{
glyphname = R;
lastChange = "2021-07-07 16:43:10 +0000";
layers = (
{
layerId = "65988B1E-DCE2-4AC3-A6FF-994A1050067D";
shapes = (
{
closed = 1;
nodes = (
(162,700,l),
(121,700,l),
(98,700,o),
(80,682,o),
(80,659,cs),
(80,36,ls),
(80,13,o),
(98,-5,o),
(121,-5,cs),
(144,-5,o),
(162,13,o),
(162,36,cs)
);
},
{
closed = 1;
nodes = (
(381,622,ls),
(446,622,o),
(489,579,o),
(489,514,cs),
(489,449,o),
(446,406,o),
(381,406,cs),
(125,406,l),
(125,328,l),
(384,328,ls),
(486,328,o),
(570,412,o),
(570,514,cs),
(570,622,o),
(492,700,o),
(384,700,cs),
(121,700,l),
(121,622,l)
);
},
{
closed = 1;
nodes = (
(413,388,l),
(339,352,l),
(498,18,ls),
(505,4,o),
(519,-5,o),
(535,-5,cs),
(558,-5,o),
(576,13,o),
(576,36,cs),
(576,42,o),
(574,49,o),
(572,54,cs)
);
}
);
width = 631;
}
);
unicode = 82;
},
{
glyphname = S;
lastChange = "2021-07-06 21:22:20 +0000";
layers = (
{
layerId = "65988B1E-DCE2-4AC3-A6FF-994A1050067D";
shapes = (
{
closed = 1;
nodes = (
(45,193,ls),
(45,131,o),
(92,-15,o),
(312,-15,cs),
(457,-15,o),
(551,65,o),
(551,188,cs),
(551,309,o),
(477,363,o),
(310,403,cs),
(219,425,o),
(156,435,o),
(156,517,cs),
(156,569,o),
(190,633,o),
(296,633,cs),
(401,633,o),
(438,582,o),
(448,526,cs),
(451,507,o),
(468,492,o),
(488,492,cs),
(513,492,o),
(533,515,o),
(528,540,cs),
(514,621,o),
(446,710,o),
(296,710,cs),
(138,710,o),
(74,598,o),
(74,517,cs),
(74,365,o),
(214,341,o),
(295,322,cs),
(427,291,o),
(469,265,o),
(469,186,cs),
(469,112,o),
(407,62,o),
(312,62,cs),
(151,62,o),
(127,152,o),
(127,193,cs),
(127,199,ls),
(127,222,o),
(109,240,o),
(86,240,cs),
(63,240,o),
(45,222,o),
(45,199,cs)
);
}
);
width = 596;
}
);
unicode = 83;
},
{
glyphname = S.ss01;
lastChange = "2021-07-07 17:08:22 +0000";
layers = (
{
background = {
shapes = (
{
closed = 1;
nodes = (
(45,117,o),
(100,-15,o),
(297,-15,cs),
(453,-15,o),
(539,59,o),
(539,191,cs),
(539,298,o),
(490,348,o),
(303,395,cs),
(183,425,o),
(140,450,o),
(140,519,cs),
(140,601,o),
(198,638,o),
(276,638,cs),
(399,638,o),
(440,570,o),
(447,519,cs),
(449,502,o),
(468,483,o),
(490,483,cs),
(513,483,o),
(530,509,o),
(526,531,cs),
(511,617,o),
(448,715,o),
(299,715,cs),
(159,715,o),
(57,652,o),
(57,526,cs),
(57,403,o),
(116,358,o),
(282,318,cs),
(420,285,o),
(456,251,o),
(456,183,cs),
(456,103,o),
(406,62,o),
(297,62,cs),
(170,62,o),
(125,130,o),
(125,203,cs),
(125,223,o),
(108,246,o),
(84,246,cs),
(64,246,o),
(45,223,o),
(45,203,cs)
);
}
);
};
layerId = "65988B1E-DCE2-4AC3-A6FF-994A1050067D";
shapes = (
{
closed = 1;
nodes = (
(45,77,o),
(151,-15,o),
(297,-15,cs),
(437,-15,o),
(539,72,o),
(539,191,cs),
(539,330,o),
(440,360,o),
(303,395,cs),
(183,425,o),
(140,458,o),
(140,519,cs),
(140,588,o),
(197,638,o),
(276,638,cs),
(374,638,o),
(437,594,o),
(447,519,cs),
(450,498,o),
(468,483,o),
(490,483,cs),
(516,483,o),
(532,503,o),
(526,531,cs),
(508,638,o),
(412,715,o),
(299,715,cs),
(159,715,o),
(57,636,o),
(57,526,cs),
(57,412,o),
(116,358,o),
(282,318,cs),
(383,293,o),
(456,282,o),
(456,183,cs),
(456,113,o),
(389,62,o),
(297,62,cs),
(197,62,o),
(125,121,o),
(125,203,cs),
(125,228,o),
(108,246,o),
(84,246,cs),
(61,246,o),
(45,228,o),
(45,203,cs)
);
}
);
width = 584;
}
);
},
{
glyphname = Germandbls;
lastChange = "2021-07-10 02:30:11 +0000";
layers = (
{
background = {
shapes = (
{
pos = (17,0);
ref = germandbls.ss01;
}
);
};
layerId = "65988B1E-DCE2-4AC3-A6FF-994A1050067D";
shapes = (
{
closed = 1;
nodes = (
(167,59,ls),
(167,19,o),
(142,-5,o),
(110,-5,cs),
(97,-5,ls),
(64,-5,o),
(45,12,o),
(45,35,cs),
(45,56,o),
(61,75,o),
(80,75,cs),
(87,75,o),
(87,85,o),
(87,104,cs),
(87,534,ls),
(87,657,o),
(154,721,o),
(282,721,cs),
(397,721,o),
(455,635,o),
(455,570,cs),
(455,491,o),
(407,450,o),
(376,422,cs),
(352,401,o),
(336,389,o),
(336,365,cs),
(336,336,o),
(372,311,o),
(422,286,cs),
(474,260,o),
(544,224,o),
(544,133,cs),
(544,51,o),
(490,-17,o),
(376,-17,cs),
(297,-17,o),
(257,-1,o),
(232,19,cs),
(224,27,o),
(218,38,o),
(218,50,cs),
(218,72,o),
(236,89,o),
(255,89,cs),
(268,89,o),
(275,86,o),
(284,81,cs),
(289,78,o),
(314,63,o),
(376,63,cs),
(444,63,o),
(464,94,o),
(464,133,cs),
(464,175,o),
(434,191,o),
(382,216,cs),
(313,249,o),
(256,291,o),
(256,365,cs),
(256,423,o),
(291,454,o),
(322,482,cs),
(353,509,o),
(375,528,o),
(375,570,cs),
(375,599,o),
(341,641,o),
(275,641,cs),
(204,641,o),
(167,604,o),
(167,534,cs),
(167,114,l)
);
}
);
width = 600;
}
);
unicode = 7838;
},
{
glyphname = Germandbls.ss01;
lastChange = "2021-07-10 02:32:19 +0000";
layers = (
{
background = {
shapes = (
{
pos = (17,0);
ref = germandbls.ss01;
}
);
};
layerId = "65988B1E-DCE2-4AC3-A6FF-994A1050067D";
shapes = (
{
closed = 1;
nodes = (
(167,534,ls),
(167,604,o),
(204,641,o),
(275,641,cs),
(341,641,o),
(375,599,o),
(375,570,cs),
(375,528,o),
(353,509,o),
(322,482,cs),
(291,454,o),
(256,423,o),
(256,365,cs),
(256,291,o),
(313,249,o),
(382,216,cs),
(434,191,o),
(464,175,o),
(464,133,cs),
(464,94,o),
(444,63,o),
(376,63,cs),
(314,63,o),
(289,78,o),
(284,81,cs),
(275,86,o),
(268,89,o),
(255,89,cs),
(236,89,o),
(218,72,o),
(218,50,cs),
(218,38,o),
(224,27,o),
(232,19,cs),
(257,-1,o),
(297,-17,o),
(376,-17,cs),
(490,-17,o),
(544,51,o),
(544,133,cs),
(544,224,o),
(474,260,o),
(422,286,cs),
(372,311,o),
(336,336,o),
(336,365,cs),
(336,389,o),
(352,401,o),
(376,422,cs),
(407,450,o),
(455,491,o),
(455,570,cs),
(455,635,o),
(397,721,o),
(282,721,cs),
(154,721,o),
(85,657,o),
(85,534,cs),
(85,36,ls),
(85,13,o),
(103,-5,o),
(126,-5,cs),
(149,-5,o),
(167,13,o),
(167,36,cs)
);
}
);
width = 600;
}
);
},
{
glyphname = Germandbls.ss02;
lastChange = "2021-07-10 02:47:39 +0000";
layers = (
{
background = {
shapes = (
{
ref = S;
}
);
};
layerId = "65988B1E-DCE2-4AC3-A6FF-994A1050067D";
shapes = (
{
closed = 1;
nodes = (
(343,410,l),
(503.921,629.787,ls),
(526,660,o),
(502.337,700,o),
(466,700,cs),
(110,700,ls),
(85,700,o),
(65,680,o),
(65,655,cs),
(65,35,ls),
(65,13,o),
(84,-5,o),
(106,-5,cs),
(129,-5,o),
(147,13,o),
(147,35,cs),
(147,655,l),
(110,624,l),
(466,624,l),
(420,651,l),
(276,453,ls),
(248,414,o),
(258,384,o),
(305,368,cs),
(397,337,o),
(472,287,o),
(472,188,cs),
(472,107,o),
(422,63,o),
(352,63,cs),
(306,63,o),
(264,82,o),
(249,90,cs),
(244,92,o),
(237,94,o),
(231,94,cs),
(209,94,o),
(192,76,o),
(192,54,cs),
(192,38,o),
(200,25,o),
(213,18,cs),
(231,9,o),
(293,-17,o),
(358,-17,cs),
(484,-17,o),
(554,80,o),
(554,196,cs),
(554,313,o),
(467,394,o),
(334,444,c)
);
}
);
width = 600;
}
);
},
{
glyphname = T;
lastChange = "2021-07-07 16:43:11 +0000";
layers = (
{
layerId = "65988B1E-DCE2-4AC3-A6FF-994A1050067D";
shapes = (
{
closed = 1;
nodes = (
(516,624,o),
(533,641,o),
(533,662,cs),
(533,683,o),
(516,700,o),
(495,700,cs),
(284,700,l),
(284,624,l),
(495,624,ls)
);
},
{
closed = 1;
nodes = (
(283,700,ls),
(260,700,o),
(242,682,o),
(242,659,cs),
(242,36,ls),
(242,13,o),
(260,-5,o),
(283,-5,cs),
(306,-5,o),
(324,13,o),
(324,36,cs),
(324,700,l)
);
},
{
closed = 1;
nodes = (
(286,624,l),
(286,700,l),
(66,700,ls),
(45,700,o),
(28,683,o),
(28,662,cs),
(28,641,o),
(45,624,o),
(66,624,cs)
);
}
);
width = 561;
}
);
unicode = 84;
},
{
glyphname = U;
lastChange = "2021-07-07 16:43:13 +0000";
layers = (
{
layerId = "65988B1E-DCE2-4AC3-A6FF-994A1050067D";
shapes = (
{
closed = 1;
nodes = (
(226,63,o),
(157,137,o),
(157,236,cs),
(157,664,ls),
(157,687,o),
(139,705,o),
(116,705,cs),
(93,705,o),
(75,687,o),
(75,664,cs),
(75,236,ls),
(75,89,o),
(187,-14,o),
(325,-14,cs),
(463,-14,o),
(575,89,o),
(575,236,cs),
(575,664,ls),
(575,687,o),
(557,705,o),
(534,705,cs),
(511,705,o),
(493,687,o),
(493,664,cs),
(493,236,ls),
(493,137,o),
(424,63,o),
(325,63,cs)
);
}
);
width = 650;
}
);
unicode = 85;
},
{
glyphname = V;
lastChange = "2021-07-07 16:43:15 +0000";
layers = (
{
layerId = "65988B1E-DCE2-4AC3-A6FF-994A1050067D";
shapes = (
{
closed = 1;
nodes = (
(312,85,l),
(108,689,ls),
(103,704,o),
(88,715,o),
(71,715,cs),
(49,715,o),
(30,698,o),
(30,676,cs),
(30,671,o),
(31,667,o),
(32,663,cs),
(248,31,ls),
(259,0,o),
(278,-15,o),
(297,-15,cs),
(316,-15,o),
(335,0,o),
(346,31,cs),
(562,663,ls),
(563,667,o),
(564,671,o),
(564,676,cs),
(564,698,o),
(545,715,o),
(523,715,cs),
(506,715,o),
(491,704,o),
(486,689,cs),
(282,85,l)
);
}
);
width = 594;
}
);
unicode = 86;
},
{
glyphname = W;
lastChange = "2021-07-07 16:43:16 +0000";
layers = (
{
layerId = "65988B1E-DCE2-4AC3-A6FF-994A1050067D";
shapes = (
{
closed = 1;
nodes = (
(35,671,o),
(36,667,o),
(37,663,cs),
(183,31,ls),
(190,0,o),
(213,-15,o),
(232,-15,cs),
(251,-15,o),
(272,0,o),
(281,31,cs),
(435,573,l),
(415,573,l),
(570,31,ls),
(579,0,o),
(600,-15,o),
(619,-15,cs),
(638,-15,o),
(661,0,o),
(668,31,cs),
(814,663,ls),
(815,667,o),
(816,671,o),
(816,676,cs),
(816,698,o),
(797,715,o),
(775,715,cs),
(758,715,o),
(741,704,o),
(738,689,cs),
(608,99,l),
(630,100,l),
(467,679,ls),
(461,700,o),
(444,715,o),
(425,715,cs),
(407,715,o),
(390,700,o),
(384,679,cs),
(221,100,l),
(243,99,l),
(113,689,ls),
(110,704,o),
(93,715,o),
(76,715,cs),
(54,715,o),
(35,698,o),
(35,676,cs)
);
}
);
width = 851;
}
);
unicode = 87;
},
{
glyphname = W.ss01;
lastChange = "2021-07-07 17:08:48 +0000";
layers = (
{
layerId = "65988B1E-DCE2-4AC3-A6FF-994A1050067D";
shapes = (
{
closed = 1;
nodes = (
(432,578,l),
(603,15,ls),
(609,-5,o),
(626,-15,o),
(642,-15,cs),
(658,-15,o),
(673,-5,o),
(678,15,cs),
(852,659,ls),
(853,662,o),
(853,665,o),
(853,668,cs),
(853,690,o),
(836,708,o),
(814,708,cs),
(794,708,o),
(778,696,o),
(774,679,cs),
(628,128,l),
(649,129,l),
(485,674,ls),
(478,697,o),
(467,709,o),
(446,709,cs),
(425,709,o),
(414,697,o),
(407,674,cs),
(243,129,l),
(264,128,l),
(109,679,ls),
(104,696,o),
(89,708,o),
(69,708,cs),
(47,708,o),
(30,690,o),
(30,668,cs),
(30,665,o),
(30,662,o),
(31,659,cs),
(214,15,ls),
(220,-5,o),
(234,-15,o),
(250,-15,cs),
(266,-15,o),
(283,-5,o),
(289,15,cs),
(460,578,l)
);
}
);
width = 883;
}
);
},
{
glyphname = X;
lastChange = "2021-07-07 16:43:18 +0000";
layers = (
{
layerId = "65988B1E-DCE2-4AC3-A6FF-994A1050067D";
shapes = (
{
closed = 1;
nodes = (
(108,688,ls),
(101,698,o),
(89,705,o),
(76,705,cs),
(54,705,o),
(37,688,o),
(37,666,cs),
(37,658,o),
(40,650,o),
(44,644,cs),
(492,12,ls),
(499,2,o),
(511,-5,o),
(524,-5,cs),
(546,-5,o),
(563,12,o),
(563,34,cs),
(563,42,o),
(560,50,o),
(556,56,cs)
);
},
{
closed = 1;
nodes = (
(545,645,ls),
(549,651,o),
(552,659,o),
(552,667,cs),
(552,689,o),
(535,706,o),
(513,706,cs),
(500,706,o),
(488,699,o),
(481,689,cs),
(37,56,ls),
(33,50,o),
(30,42,o),
(30,34,cs),
(30,12,o),
(47,-5,o),
(69,-5,cs),
(82,-5,o),
(94,2,o),
(101,12,cs)
);
}
);
width = 593;
}
);
unicode = 88;
},
{
glyphname = Y;
lastChange = "2021-07-07 16:43:19 +0000";
layers = (
{
layerId = "65988B1E-DCE2-4AC3-A6FF-994A1050067D";
shapes = (
{
closed = 1;
nodes = (
(250,341,l),
(250,36,ls),
(250,13,o),
(268,-5,o),
(291,-5,cs),
(314,-5,o),
(332,13,o),
(332,36,cs),
(332,341,l),
(558,646,ls),
(563,652,o),
(566,660,o),
(566,669,cs),
(566,691,o),
(549,708,o),
(527,708,cs),
(514,708,o),
(503,702,o),
(496,692,cs),
(265,382,l),
(318,381,l),
(101,691,ls),
(94,701,o),
(82,708,o),
(69,708,cs),
(47,708,o),
(30,691,o),
(30,669,cs),
(30,661,o),
(33,653,o),
(37,647,cs)
);
}
);
width = 596;
}
);
unicode = 89;
},
{
glyphname = Z;
lastChange = "2021-07-07 16:43:21 +0000";
layers = (
{
layerId = "65988B1E-DCE2-4AC3-A6FF-994A1050067D";
shapes = (
{
closed = 1;
nodes = (
(442,659,l),
(465,622,l),
(95,622,ls),
(73,622,o),
(56,639,o),
(56,661,cs),
(56,683,o),
(73,700,o),
(95,700,cs),
(463,700,ls),
(510,700,o),
(525,686,o),
(525,662,cs),
(525,649,o),
(518,633,o),
(506,614,cs),
(126,40,l),
(106,78,l),
(502,78,ls),
(524,78,o),
(541,61,o),
(541,39,cs),
(541,17,o),
(524,0,o),
(502,0,cs),
(107,0,ls),
(60,0,o),
(45,14,o),
(45,38,cs),
(45,51,o),
(52,67,o),
(64,86,c)
);
}
);
width = 586;
}
);
unicode = 90;
},
{
glyphname = a;
lastChange = "2021-07-06 20:43:01 +0000";
layers = (
{
background = {
shapes = (
{
closed = 1;
nodes = (
(495,59,o),
(482,78,o),
(465,78,cs),
(459,78,o),
(458,79,o),
(458,84,cs),
(459,349,ls),
(459,452,o),
(417,530,o),
(262,530,cs),
(159,530,o),
(89,477,o),
(89,421,cs),
(89,400,o),
(105,383,o),
(126,383,cs),
(141,383,o),
(156,389,o),
(163,405,cs),
(173,427,o),
(187,453,o),
(262,453,cs),
(360,453,o),
(379,409,o),
(379,369,cs),
(380,160,ls),
(380,131,o),
(324,62,o),
(233,62,cs),
(178,62,o),
(131,84,o),
(131,144,cs),
(131,188,o),
(173,218,o),
(244,224,cs),
(301,229,o),
(350,244,o),
(384,266,c),
(383,369,l),
(379,369,l),
(379,329,o),
(340,306,o),
(244,302,cs),
(126,297,o),
(51,230,o),
(51,143,cs),
(51,50,o),
(115,-15,o),
(236,-15,cs),
(295,-15,o),
(334,2,o),
(383,51,cs),
(384,52,o),
(385,53,o),
(386,53,cs),
(388,53,o),
(389,52,o),
(389,50,cs),
(389,20,o),
(416,-4,o),
(448,-5,cs),
(476,-5,o),
(495,14,o),
(495,39,cs)
);
}
);
};
layerId = "65988B1E-DCE2-4AC3-A6FF-994A1050067D";
shapes = (
{
closed = 1;
nodes = (
(278,-16,o),
(345,0,o),
(383,68,c),
(385,72,o),
(386,71,o),
(386,68,c),
(386,49,ls),
(386,19,o),
(410,-8,o),
(442,-8,cs),
(449,-8,ls),
(482,-8,o),
(501,9,o),
(501,32,cs),
(501,53,o),
(485,72,o),
(466,72,cs),
(459,72,o),
(459,83,o),
(459,102,cs),
(459,335,ls),
(459,435,o),
(422,530,o),
(271,530,cs),
(161,530,o),
(105,462,o),
(88,424,cs),
(77,400,o),
(87,368,o),
(122,368,cs),
(141,368,o),
(151,377,o),
(161,395,cs),
(174,418,o),
(206,453,o),
(272,453,cs),
(352,453,o),
(377,411,o),
(377,369,cs),
(377,322,o),
(336,305,o),
(241,304,cs),
(108,303,o),
(45,220,o),
(45,138,cs),
(45,58,o),
(105,-13,o),
(217,-15,cs)
);
},
{
closed = 1;
nodes = (
(125,184,o),
(160,229,o),
(242,229,cs),
(305,229,o),
(357,256,o),
(376,276,c),
(379,281,o),
(379,277,o),
(379,276,cs),
(379,254,l),
(379,170,ls),
(379,98,o),
(310,63,o),
(230,62,cs),
(149,61,o),
(125,109,o),
(125,143,cs)
);
}
);
width = 546;
}
);
unicode = 97;
},
{
glyphname = a.ss01;
lastChange = "2021-07-03 04:30:54 +0000";
layers = (
{
background = {
shapes = (
{
closed = 0;
nodes = (
(409,153,ls),
(409,108,o),
(323,63,o),
(238,62,cs),
(149,61,o),
(125,108,o),
(125,143,cs),
(125,184,o),
(160,229,o),
(256,229,cs),
(322,229,o),
(380,239,o),
(412,278,c),
(415,278,l),
(413,270,o),
(409,262,o),
(409,239,cs)
);
},
{
closed = 1;
nodes = (
(303,-16,o),
(378,10,o),
(421,69,c),
(424,69,l),
(421,65,o),
(419,53,o),
(419,44,cs),
(419,12,o),
(446,-8,o),
(486,-8,cs),
(525,-8,o),
(544,9,o),
(544,32,cs),
(544,53,o),
(528,71,o),
(507,72,cs),
(495,73,o),
(489,83,o),
(489,102,cs),
(489,335,ls),
(489,425,o),
(443,530,o),
(286,530,cs),
(126,530,o),
(78,409,o),
(75,382,cs),
(72,353,o),
(91,337,o),
(113,337,cs),
(135,337,o),
(150,353,o),
(155,376,cs),
(158,389,o),
(183,453,o),
(287,453,cs),
(376,453,o),
(408,409,o),
(408,369,cs),
(408,322,o),
(362,305,o),
(256,304,cs),
(108,303,o),
(45,220,o),
(45,138,cs),
(45,58,o),
(105,-14,o),
(232,-15,cs)
);
}
);
};
layerId = "65988B1E-DCE2-4AC3-A6FF-994A1050067D";
shapes = (
{
closed = 1;
nodes = (
(303,-16,o),
(378,10,o),
(421,69,c),
(424,69,l),
(422,62,o),
(420,55,o),
(420,47,cs),
(420,14,o),
(454,-8,o),
(493,-8,cs),
(525,-8,o),
(544,9,o),
(544,32,cs),
(544,53,o),
(528,71,o),
(507,72,cs),
(495,73,o),
(489,83,o),
(489,102,cs),
(489,335,ls),
(489,425,o),
(443,530,o),
(286,530,cs),
(126,530,o),
(78,409,o),
(75,382,cs),
(72,353,o),
(91,337,o),
(113,337,cs),
(135,337,o),
(150,353,o),
(155,376,cs),
(158,389,o),
(183,453,o),
(287,453,cs),
(376,453,o),
(408,409,o),
(408,369,cs),
(408,322,o),
(362,305,o),
(256,304,cs),
(108,303,o),
(45,220,o),
(45,138,cs),
(45,58,o),
(105,-14,o),
(232,-15,cs)
);
},
{
closed = 1;
nodes = (
(125,184,o),
(160,229,o),
(256,229,cs),
(322,229,o),
(380,239,o),
(412,278,c),
(415,278,l),
(413,270,o),
(409,262,o),
(409,239,cs),
(409,153,ls),
(409,108,o),
(323,63,o),
(238,62,cs),
(149,61,o),
(125,108,o),
(125,143,cs)
);
}
);
width = 589;
}
);
metricLeft = "=a";
metricRight = "=a";
},
{
glyphname = a.ss02;
lastChange = "2021-07-06 20:37:46 +0000";
layers = (
{
background = {
shapes = (
{
closed = 1;
nodes = (
(274,-2,o),
(357,8,o),
(400,83,c),
(403,83,l),
(400,53,o),
(401,-3,o),
(477,-8,cs),
(506,-10,o),
(526,6,o),
(528,28,cs),
(529,49,o),
(515,68,o),
(494,71,cs),
(482,73,o),
(477,83,o),
(478,102,cs),
(494,335,ls),
(501,430,o),
(457,533,o),
(305,543,cs),
(146,554,o),
(89,437,o),
(84,410,cs),
(79,382,o),
(97,364,o),
(119,363,cs),
(141,361,o),
(157,376,o),
(164,399,cs),
(168,412,o),
(197,474,o),
(301,466,cs),
(386,460,o),
(418,416,o),
(415,374,cs),
(411,327,o),
(365,313,o),
(260,320,cs),
(112,329,o),
(43,251,o),
(37,169,cs),
(32,89,o),
(87,14,o),
(213,3,cs)
);
},
{
closed = 1;
nodes = (
(120,209,o),
(159,252,o),
(255,245,cs),
(311,241,o),
(373,253,o),
(408,295,c),
(411,295,l),
(409,259,l),
(402,166,ls),
(398,104,o),
(312,75,o),
(232,79,cs),
(136,85,o),
(115,134,o),
(118,168,cs)
);
},
{
ref = a.ss01;
}
);
};
layerId = "65988B1E-DCE2-4AC3-A6FF-994A1050067D";
shapes = (
{
closed = 1;
nodes = (
(293,-16,o),
(375,0,o),
(413,78,c),
(415,82,o),
(416,81,o),
(416,78,c),
(415,48,o),
(420,-8,o),
(496,-8,cs),
(525,-8,o),
(544,9,o),
(544,32,cs),
(544,53,o),
(528,71,o),
(507,72,cs),
(495,73,o),
(489,83,o),
(489,102,cs),
(489,335,ls),
(489,431,o),
(438,530,o),
(286,530,cs),
(161,530,o),
(105,457,o),
(88,419,cs),
(77,395,o),
(87,363,o),
(122,363,cs),
(141,363,o),
(151,372,o),
(161,390,cs),
(174,413,o),
(206,453,o),
(287,453,cs),
(372,453,o),
(407,411,o),
(407,369,cs),
(407,322,o),
(362,305,o),
(256,304,cs),
(108,303,o),
(45,220,o),
(45,138,cs),
(45,58,o),
(105,-13,o),
(232,-15,cs)
);
},
{
closed = 1;
nodes = (
(125,184,o),
(160,229,o),
(257,229,cs),
(313,229,o),
(374,245,o),
(406,290,c),
(409,295,o),
(409,291,o),
(409,290,cs),
(409,254,l),
(409,160,ls),
(409,98,o),
(325,63,o),
(245,62,cs),
(149,61,o),
(125,109,o),
(125,143,cs)
);
}
);
width = 589;
}
);
metricLeft = "=a";
metricRight = "=a";
},
{
glyphname = a.wide;
lastChange = "2021-07-06 20:18:40 +0000";
layers = (
{
layerId = "65988B1E-DCE2-4AC3-A6FF-994A1050067D";
shapes = (
{
closed = 1;
nodes = (
(307,-16,o),
(370,12,o),
(419,52,c),
(419,132,l),
(379,98,o),
(316,63,o),
(238,62,cs),
(149,61,o),
(125,108,o),
(125,143,cs),
(125,184,o),
(160,229,o),
(256,229,cs),
(322,229,o),
(372,242,o),
(409,260,c),
(409,81,ls),
(409,24,o),
(446,-5,o),
(496,-8,cs),
(525,-9,o),
(544,9,o),
(544,32,cs),
(544,53,o),
(528,71,o),
(507,72,cs),
(495,73,o),
(489,83,o),
(489,102,cs),
(489,335,ls),
(489,425,o),
(443,530,o),
(286,530,cs),
(126,530,o),
(78,409,o),
(75,382,cs),
(72,353,o),
(91,337,o),
(113,337,cs),
(135,337,o),
(150,353,o),
(155,376,cs),
(158,389,o),
(183,453,o),
(287,453,cs),
(376,453,o),
(408,409,o),
(408,369,cs),
(408,322,o),
(362,305,o),
(256,304,cs),
(108,303,o),
(45,220,o),
(45,138,cs),
(45,58,o),
(105,-14,o),
(232,-15,cs)
);
}
);
width = 589;
}
);
},
{
glyphname = b;
lastChange = "2021-07-07 17:34:36 +0000";
layers = (
{
layerId = "65988B1E-DCE2-4AC3-A6FF-994A1050067D";
shapes = (
{
closed = 1;
nodes = (
(450,133,o),
(396,61,o),
(295,62,cs),
(201,63,o),
(150,130,o),
(150,258,cs),
(150,386,o),
(201,453,o),
(297,453,cs),
(393,453,o),
(450,381,o),
(450,258,cs)
);
},
{
closed = 1;
nodes = (
(530,402,o),
(451,530,o),
(312,530,cs),
(241,530,o),
(178,496,o),
(133,443,c),
(150,427,l),
(150,690,ls),
(150,712,o),
(132,730,o),
(110,730,cs),
(88,730,o),
(70,712,o),
(70,690,cs),
(70,31,ls),
(70,8,o),
(88,-10,o),
(110,-10,cs),
(132,-10,o),
(150,8,o),
(150,31,cs),
(150,92,l),
(134,74,l),
(177,20,o),
(241,-15,o),
(313,-15,cs),
(451,-14,o),
(530,114,o),
(530,258,cs)
);
}
);
width = 567;
}
);
metricLeft = "=n";
metricRight = "=o-8";
unicode = 98;
},
{
glyphname = b.ss01;
lastChange = "2021-07-03 03:57:12 +0000";
layers = (
{
layerId = "65988B1E-DCE2-4AC3-A6FF-994A1050067D";
shapes = (
{
closed = 1;
nodes = (
(450,133,o),
(396,61,o),
(295,62,cs),
(201,63,o),
(150,130,o),
(150,258,cs),
(150,386,o),
(201,453,o),
(297,453,cs),
(393,453,o),
(450,381,o),
(450,258,cs)
);
},
{
closed = 1;
nodes = (
(530,402,o),
(451,530,o),
(312,530,cs),
(253,530,o),
(190,507,o),
(147,434,c),
(144,434,l),
(146,444,o),
(150,453,o),
(150,488,cs),
(150,685,ls),
(150,707,o),
(132,725,o),
(110,725,cs),
(88,725,o),
(70,707,o),
(70,685,cs),
(70,31,ls),
(70,8,o),
(88,-10,o),
(110,-10,cs),
(132,-10,o),
(150,8,o),
(150,31,cs),
(150,39,ls),
(150,58,o),
(146,66,o),
(144,75,c),
(147,75,l),
(188,9,o),
(253,-15,o),
(313,-15,cs),
(451,-14,o),
(530,114,o),
(530,258,cs)
);
}
);
width = 572;
}
);
metricLeft = "=b";
metricRight = "=b";
},
{
glyphname = b.ss02;
lastChange = "2021-07-03 04:35:24 +0000";
layers = (
{
layerId = "65988B1E-DCE2-4AC3-A6FF-994A1050067D";
shapes = (
{
closed = 1;
nodes = (
(450,133,o),
(396,61,o),
(295,62,cs),
(201,63,o),
(150,130,o),
(150,258,cs),
(150,386,o),
(201,453,o),
(297,453,cs),
(393,453,o),
(450,381,o),
(450,258,cs)
);
},
{
closed = 1;
nodes = (
(530,402,o),
(451,530,o),
(312,530,cs),
(236,530,o),
(167,484,o),
(153,434,c),
(152,430,o),
(150,431,o),
(150,434,c),
(150,469,l),
(150,685,ls),
(150,707,o),
(132,725,o),
(110,725,cs),
(88,725,o),
(70,707,o),
(70,685,cs),
(70,31,ls),
(70,8,o),
(88,-10,o),
(110,-10,cs),
(132,-10,o),
(150,8,o),
(150,31,cs),
(150,49,l),
(150,85,l),
(150,91,o),
(152,89,o),
(153,85,c),
(171,21,o),
(240,-15,o),
(313,-15,cs),
(451,-15,o),
(530,114,o),
(530,258,cs)
);
}
);
width = 572;
}
);
metricLeft = "=b";
metricRight = "=b";
},
{
glyphname = c;
lastChange = "2021-07-07 17:34:36 +0000";
layers = (
{
layerId = "65988B1E-DCE2-4AC3-A6FF-994A1050067D";
shapes = (
{
closed = 1;
nodes = (
(449,470,o),
(375,530,o),
(275,530,cs),
(138,530,o),
(45,412,o),
(45,259,cs),
(45,103,o),
(131,-15,o),
(275,-15,cs),
(377,-15,o),
(454,55,o),
(472,146,cs),
(479,180,o),
(461,201,o),
(437,201,cs),
(416,201,o),
(402,185,o),
(399,165,cs),
(389,107,o),
(342,62,o),
(275,62,cs),
(182,62,o),
(125,141,o),
(125,259,cs),
(125,369,o),
(175,453,o),
(275,453,cs),
(338,453,o),
(369,419,o),
(381,397,cs),
(393,375,o),
(402,355,o),
(424,355,cs),
(450,355,o),
(463,375,o),
(459,402,cs)
);
}
);
width = 509;
}
);
metricLeft = "=o";
metricRight = "=o-10";
unicode = 99;
},
{
glyphname = d;
lastChange = "2021-07-07 17:09:21 +0000";
layers = (
{
layerId = "65988B1E-DCE2-4AC3-A6FF-994A1050067D";
shapes = (
{
closed = 1;
nodes = (
(125,381,o),
(182,453,o),
(278,453,cs),
(374,453,o),
(425,386,o),
(425,258,cs),
(425,130,o),
(374,63,o),
(280,62,cs),
(179,61,o),
(125,133,o),
(125,258,cs)
);
},
{
closed = 1;
nodes = (
(45,114,o),
(120,-14,o),
(258,-15,cs),
(330,-15,o),
(398,20,o),
(441,84,c),
(425,102,l),
(425,31,ls),
(425,8,o),
(443,-10,o),
(465,-10,cs),
(487,-10,o),
(505,8,o),
(505,31,cs),
(505,690,ls),
(505,712,o),
(487,730,o),
(465,730,cs),
(443,730,o),
(425,712,o),
(425,690,cs),
(425,427,l),
(442,443,l),
(412,491,o),
(339,530,o),
(268,530,cs),
(129,530,o),
(45,402,o),
(45,258,cs)
);
}
);
width = 575;
}
);
metricLeft = "=o";
unicode = 100;
},
{
glyphname = e;
lastChange = "2021-07-10 03:01:07 +0000";
layers = (
{
layerId = "65988B1E-DCE2-4AC3-A6FF-994A1050067D";
shapes = (
{
closed = 1;
nodes = (
(351,-15,o),
(416,32,o),
(448,80,cs),
(477,123,o),
(453,155,o),
(427,155,cs),
(403,155,o),
(392,134,o),
(385,123,cs),
(367,94,o),
(325,62,o),
(264,62,cs),
(187,62,o),
(115,115,o),
(115,260,cs),
(115,386,o),
(175,453,o),
(262,453,cs),
(357,453,o),
(408,373,o),
(409,282,c),
(438,307,l),
(99,307,l),
(99,234,l),
(426,234,ls),
(464,234,o),
(483,255,o),
(483,293,cs),
(483,422,o),
(395,530,o),
(265,530,cs),
(134,530,o),
(35,420,o),
(35,255,cs),
(35,76,o),
(146,-15,o),
(266,-15,cs)
);
}
);
width = 518;
}
);
metricLeft = "=o";
metricRight = "=o";
unicode = 101;
},
{
glyphname = f;
lastChange = "2021-07-07 17:09:21 +0000";
layers = (
{
background = {
shapes = (
{
closed = 1;
nodes = (
(80,543,l),
(58,543,o),
(40,525,o),
(40,503,c),
(40,481,o),
(58,463,o),
(80,463,c),
(170,463,l),
(192,463,o),
(210,481,o),
(210,503,c),
(210,525,o),
(192,543,o),
(170,543,c)
);
},
{
closed = 1;
nodes = (
(151,621,l),
(151,638,o),
(152,639,o),
(179,639,c),
(201,639,o),
(219,657,o),
(219,679,c),
(219,701,o),
(201,719,o),
(179,719,c),
(106,719,o),
(71,670,o),
(71,621,c),
(71,40,l),
(71,18,o),
(89,0,o),
(111,0,c),
(133,0,o),
(151,18,o),
(151,40,c)
);
}
);
};
layerId = "65988B1E-DCE2-4AC3-A6FF-994A1050067D";
shapes = (
{
closed = 1;
nodes = (
(93,8,o),
(111,-10,o),
(133,-10,cs),
(155,-10,o),
(173,8,o),
(173,30,cs),
(173,603,ls),
(173,623,o),
(183,640,o),
(199,640,cs),
(235,640,ls),
(257,640,o),
(275,658,o),
(275,680,cs),
(275,702,o),
(257,720,o),
(235,720,cs),
(186,720,ls),
(127,720,o),
(93,663,o),
(93,608,cs),
(93,30,ls)
);
},
{
closed = 1;
nodes = (
(38,515,o),
(20,499,o),
(20,478,cs),
(20,458,o),
(38,442,o),
(60,442,cs),
(231,442,ls),
(253,442,o),
(271,458,o),
(271,478,cs),
(271,498,o),
(253,515,o),
(231,515,cs),
(60,515,ls)
);
}
);
width = 305;
}
);
unicode = 102;
},
{
glyphname = f.ss01;
lastChange = "2021-07-10 03:02:06 +0000";
layers = (
{
background = {
shapes = (
{
closed = 1;
nodes = (
(90,543,l),
(68,543,o),
(50,525,o),
(50,503,c),
(50,481,o),
(68,463,o),
(90,463,c),
(180,463,l),
(202,463,o),
(220,481,o),
(220,503,c),
(220,525,o),
(202,543,o),
(180,543,c)
);
},
{
closed = 1;
nodes = (
(161,621,l),
(161,638,o),
(162,639,o),
(189,639,c),
(211,639,o),
(229,657,o),
(229,679,c),
(229,701,o),
(211,719,o),
(189,719,c),
(116,719,o),
(81,670,o),
(81,621,c),
(81,40,l),
(81,18,o),
(99,0,o),
(121,0,c),
(143,0,o),
(161,18,o),
(161,40,c)
);
},
{
closed = 1;
nodes = (
(103,8,o),
(121,-10,o),
(143,-10,cs),
(165,-10,o),
(183,8,o),
(183,30,cs),
(183,603,ls),
(183,623,o),
(193,640,o),
(209,640,cs),
(245,640,ls),
(267,640,o),
(285,658,o),
(285,680,cs),
(285,702,o),
(267,720,o),
(245,720,cs),
(196,720,ls),
(137,720,o),
(103,663,o),
(103,608,cs),
(103,30,ls)
);
}
);
};
layerId = "65988B1E-DCE2-4AC3-A6FF-994A1050067D";
shapes = (
{
closed = 1;
nodes = (
(38,515,o),
(20,499,o),
(20,478,cs),
(20,458,o),
(38,442,o),
(60,442,cs),
(251,442,ls),
(273,442,o),
(291,458,o),
(291,478,cs),
(291,498,o),
(273,515,o),
(251,515,cs),
(60,515,ls)
);
},
{
closed = 1;
nodes = (
(263,709,o),
(232,719,o),
(206,719,cs),
(148,719,o),
(87,678,o),
(87,563,cs),
(87,30,ls),
(87,8,o),
(105,-10,o),
(127,-10,cs),
(149,-10,o),
(167,8,o),
(167,30,cs),
(167,563,ls),
(167,619,o),
(182,639,o),
(203,639,cs),
(210,639,o),
(219,638,o),
(229,629,cs),
(235,624,o),
(245,619,o),
(257,619,cs),
(279,619,o),
(295,637,o),
(295,659,cs),
(295,670,o),
(291,679,o),
(282,689,cs)
);
}
);
width = 325;
}
);
metricLeft = "=f";
metricRight = "=f";
},
{
glyphname = g;
lastChange = "2021-07-07 17:09:21 +0000";
layers = (
{
background = {
shapes = (
{
pos = (-49,0);
ref = d;
}
);
};
layerId = "65988B1E-DCE2-4AC3-A6FF-994A1050067D";
shapes = (
{
closed = 1;
nodes = (
(401,105,o),
(318,62,o),
(256,62,cs),
(171,62,o),
(109,145,o),
(109,255,cs),
(109,368,o),
(171,453,o),
(256,453,cs),
(326,453,o),
(401,392,o),
(401,269,cs)
);
},
{
closed = 1;
nodes = (
(29,107,o),
(121,-15,o),
(256,-15,cs),
(314,-15,o),
(357,12,o),
(399,63,c),
(401,63,l),
(401,19,ls),
(401,-38,o),
(352,-108,o),
(261,-108,cs),
(186,-108,o),
(152,-78,o),
(140,-66,cs),
(125,-50,o),
(123,-37,o),
(98,-37,cs),
(79,-37,o),
(61,-55,o),
(61,-77,cs),
(61,-120,o),
(140,-185,o),
(257,-185,cs),
(395,-185,o),
(481,-97,o),
(481,47,cs),
(481,485,ls),
(481,507,o),
(463,525,o),
(441,525,cs),
(418,525,o),
(401,507,o),
(401,485,cs),
(401,464,l),
(361,506,o),
(310,530,o),
(256,530,cs),
(116,530,o),
(29,403,o),
(29,255,cs)
);
}
);
width = 600;
}
);
unicode = 103;
},
{
glyphname = h;
lastChange = "2021-07-10 03:05:41 +0000";
layers = (
{
layerId = "65988B1E-DCE2-4AC3-A6FF-994A1050067D";
shapes = (
{
closed = 1;
nodes = (
(150,690,ls),
(150,712,o),
(132,730,o),
(110,730,cs),
(87,730,o),
(70,712,o),
(70,690,cs),
(70,30,ls),
(70,8,o),
(87,-10,o),
(110,-10,cs),
(132,-10,o),
(150,8,o),
(150,30,cs)
);
},
{
closed = 1;
nodes = (
(139,333,l),
(150,343,l),
(150,403,o),
(215,451,o),
(288,451,cs),
(352,451,o),
(405,412,o),
(405,344,cs),
(405,30,ls),
(405,8,o),
(423,-10,o),
(445,-10,cs),
(467,-10,o),
(485,8,o),
(485,30,cs),
(485,344,ls),
(485,468,o),
(385,530,o),
(295,530,cs),
(230,530,o),
(180,498,o),
(150,463,c),
(139,449,l)
);
}
);
width = 545;
}
);
metricLeft = "=n";
metricRight = "=n";
unicode = 104;
},
{
glyphname = h.ss01;
lastChange = "2021-07-03 04:11:22 +0000";
layers = (
{
layerId = "65988B1E-DCE2-4AC3-A6FF-994A1050067D";
shapes = (
{
closed = 1;
nodes = (
(150,323,ls),
(150,403,o),
(215,451,o),
(288,451,cs),
(353,451,o),
(405,414,o),
(405,344,cs),
(405,30,ls),
(405,8,o),
(423,-10,o),
(445,-10,cs),
(467,-10,o),
(485,8,o),
(485,30,cs),
(485,344,ls),
(485,468,o),
(385,530,o),
(297,530,cs),
(230,530,o),
(168,494,o),
(147,444,c),
(144,444,l),
(146,453,o),
(150,463,o),
(150,494,cs),
(150,690,ls),
(150,712,o),
(132,730,o),
(110,730,cs),
(87,730,o),
(70,712,o),
(70,690,cs),
(70,30,ls),
(70,8,o),
(87,-10,o),
(110,-10,cs),
(132,-10,o),
(150,8,o),
(150,30,cs)
);
}
);
width = 545;
}
);
metricLeft = "=h";
metricRight = "=h";
},
{
glyphname = h.ss02;
lastChange = "2021-07-03 04:35:48 +0000";
layers = (
{
background = {
shapes = (
{
ref = n.ss02;
}
);
};
layerId = "65988B1E-DCE2-4AC3-A6FF-994A1050067D";
shapes = (
{
closed = 1;
nodes = (
(150,313,ls),
(150,403,o),
(215,451,o),
(288,451,cs),
(351,451,o),
(405,417,o),
(405,344,cs),
(405,30,ls),
(405,8,o),
(423,-10,o),
(445,-10,cs),
(467,-10,o),
(485,8,o),
(485,30,cs),
(485,344,ls),
(485,468,o),
(385,530,o),
(302,530,cs),
(230,530,o),
(168,484,o),
(153,434,c),
(151,427,o),
(150,430,o),
(150,434,c),
(150,472,l),
(150,690,ls),
(150,712,o),
(132,730,o),
(110,730,cs),
(87,730,o),
(70,712,o),
(70,690,cs),
(70,30,ls),
(70,8,o),
(87,-10,o),
(110,-10,cs),
(132,-10,o),
(150,8,o),
(150,30,cs)
);
}
);
width = 545;
}
);
metricLeft = "=h";
metricRight = "=h";
},
{
glyphname = i;
lastChange = "2021-07-06 21:01:30 +0000";
layers = (
{
layerId = "65988B1E-DCE2-4AC3-A6FF-994A1050067D";
shapes = (
{
closed = 1;
nodes = (
(142,485,ls),
(142,507,o),
(124,525,o),
(101,525,cs),
(78,525,o),
(60,507,o),
(60,485,cs),
(60,30,ls),
(60,8,o),
(78,-10,o),
(101,-10,cs),
(124,-10,o),
(142,8,o),
(142,30,cs)
);
},
{
pos = (-9,0);
ref = dotaccentcomb;
}
);
width = 202;
}
);
metricLeft = "=|n";
metricRight = "=n";
unicode = 105;
},
{
glyphname = j;
lastChange = "2021-07-10 02:48:18 +0000";
layers = (
{
background = {
shapes = (
{
closed = 1;
nodes = (
(67,-79,ls),
(67,-90,o),
(67,-90,o),
(55,-90,cs),
(33,-90,o),
(15,-108,o),
(15,-130,cs),
(15,-152,o),
(33,-170,o),
(55,-170,cs),
(127,-170,o),
(147,-125,o),
(147,-79,cs),
(147,485,ls),
(147,507,o),
(129,525,o),
(107,525,cs),
(85,525,o),
(67,507,o),
(67,485,cs)
);
}
);
};
layerId = "65988B1E-DCE2-4AC3-A6FF-994A1050067D";
shapes = (
{
closed = 1;
nodes = (
(147,507,o),
(129,525,o),
(107,525,cs),
(85,525,o),
(67,507,o),
(67,485,cs),
(67,-63,ls),
(67,-83,o),
(57,-90,o),
(41,-90,cs),
(5,-90,ls),
(-17,-90,o),
(-35,-108,o),
(-35,-130,cs),
(-35,-152,o),
(-17,-170,o),
(5,-170,cs),
(54,-170,ls),
(113,-170,o),
(147,-123,o),
(147,-68,cs),
(147,485,ls)
);
},
{
pos = (-5,0);
ref = dotaccentcomb;
}
);
width = 207;
}
);
metricRight = i;
unicode = 106;
},
{
glyphname = j.001;
lastChange = "2021-07-10 03:04:28 +0000";
layers = (
{
background = {
shapes = (
{
closed = 1;
nodes = (
(118,-79,ls),
(118,-90,o),
(118,-90,o),
(106,-90,cs),
(84,-90,o),
(66,-108,o),
(66,-130,cs),
(66,-152,o),
(84,-170,o),
(106,-170,cs),
(178,-170,o),
(198,-125,o),
(198,-79,cs),
(198,485,ls),
(198,507,o),
(180,525,o),
(158,525,cs),
(136,525,o),
(118,507,o),
(118,485,cs)
);
}
);
};
layerId = "65988B1E-DCE2-4AC3-A6FF-994A1050067D";
shapes = (
{
pos = (46,0);
ref = dotaccentcomb;
},
{
closed = 1;
nodes = (
(22,-175,o),
(53,-185,o),
(79,-185,cs),
(137,-185,o),
(198,-148,o),
(198,-33,cs),
(198,485,ls),
(198,507,o),
(180,525,o),
(158,525,cs),
(136,525,o),
(118,507,o),
(118,485,cs),
(118,-29,ls),
(118,-85,o),
(103,-105,o),
(82,-105,cs),
(75,-105,o),
(66,-104,o),
(56,-95,cs),
(50,-90,o),
(40,-85,o),
(28,-85,cs),
(6,-85,o),
(-10,-103,o),
(-10,-125,cs),
(-10,-136,o),
(-6,-145,o),
(3,-155,cs)
);
}
);
width = 258;
}
);
metricRight = i;
},
{
glyphname = k;
lastChange = "2021-07-07 17:09:21 +0000";
layers = (
{
layerId = "65988B1E-DCE2-4AC3-A6FF-994A1050067D";
shapes = (
{
closed = 1;
nodes = (
(130,680,ls),
(130,702,o),
(112,720,o),
(90,720,cs),
(68,720,o),
(50,702,o),
(50,680,cs),
(50,40,ls),
(50,18,o),
(68,0,o),
(90,0,cs),
(112,0,o),
(130,18,o),
(130,40,cs)
);
},
{
closed = 1;
nodes = (
(123,207,l),
(411,445,ls),
(420,452,o),
(425,464,o),
(425,476,cs),
(425,498,o),
(407,515,o),
(385,515,cs),
(375,515,o),
(366,512,o),
(359,506,cs),
(123,311,l)
);
},
{
closed = 1;
nodes = (
(433,0,o),
(451,18,o),
(451,40,cs),
(451,49,o),
(447,57,o),
(443,63,cs),
(236,352,l),
(175,302,l),
(379,17,ls),
(386,7,o),
(398,0,o),
(411,0,cs)
);
}
);
width = 501;
}
);
unicode = 107;
},
{
glyphname = l;
lastChange = "2021-07-06 21:01:51 +0000";
layers = (
{
layerId = "65988B1E-DCE2-4AC3-A6FF-994A1050067D";
shapes = (
{
closed = 1;
nodes = (
(152,690,ls),
(152,712,o),
(134,730,o),
(111,730,cs),
(87,730,o),
(70,712,o),
(70,690,cs),
(70,30,ls),
(70,8,o),
(87,-10,o),
(111,-10,cs),
(134,-10,o),
(152,8,o),
(152,30,cs)
);
}
);
width = 222;
}
);
metricLeft = "=n";
metricRight = "=|n";
unicode = 108;
},
{
glyphname = m;
lastChange = "2021-07-10 03:05:33 +0000";
layers = (
{
background = {
shapes = (
{
closed = 1;
nodes = (
(150,475,ls),
(150,498,o),
(132,515,o),
(110,515,cs),
(88,515,o),
(70,498,o),
(70,475,cs),
(70,40,ls),
(70,18,o),
(88,0,o),
(110,0,cs),
(132,0,o),
(150,18,o),
(150,40,cs)
);
},
{
closed = 1;
nodes = (
(811,352,ls),
(811,432,o),
(736,528,o),
(619,528,cs),
(517,528,o),
(406,432,o),
(406,346,cs),
(406,324,o),
(423,306,o),
(446,306,cs),
(468,306,o),
(486,324,o),
(486,346,cs),
(486,385,o),
(549,448,o),
(619,448,cs),
(695,448,o),
(731,396,o),
(731,352,cs),
(731,40,ls),
(731,18,o),
(749,0,o),
(771,0,cs),
(793,0,o),
(811,18,o),
(811,40,cs)
);
},
{
closed = 1;
nodes = (
(137,337,l),
(145,345,o),
(150,355,o),
(150,367,cs),
(150,394,o),
(212,448,o),
(287,448,cs),
(352,448,o),
(406,403,o),
(406,349,cs),
(406,348,o),
(406,348,o),
(406,347,cs),
(406,346,l),
(406,40,ls),
(406,18,o),
(424,0,o),
(446,0,cs),
(468,0,o),
(486,18,o),
(486,40,cs),
(486,346,ls),
(486,347,o),
(486,347,o),
(486,347,cs),
(486,349,ls),
(486,446,o),
(387,528,o),
(287,528,cs),
(215,528,o),
(184,502,o),
(137,466,c)
);
}
);
};
layerId = "65988B1E-DCE2-4AC3-A6FF-994A1050067D";
shapes = (
{
closed = 1;
nodes = (
(150,463,l),
(150,485,ls),
(150,507,o),
(132,525,o),
(110,525,cs),
(88,525,o),
(70,507,o),
(70,485,cs),
(70,30,ls),
(70,8,o),
(88,-10,o),
(110,-10,cs),
(132,-10,o),
(150,8,o),
(150,30,cs)
);
},
{
closed = 1;
nodes = (
(139,343,l),
(150,353,l),
(150,403,o),
(214,451,o),
(288,451,cs),
(354,451,o),
(406,406,o),
(406,344,cs),
(406,30,ls),
(406,8,o),
(423,-10,o),
(445,-10,cs),
(467,-10,o),
(485,8,o),
(485,30,cs),
(485,344,ls),
(485,468,o),
(387,530,o),
(295,530,cs),
(220,530,o),
(167,489,o),
(139,449,c)
);
},
{
closed = 1;
nodes = (
(454,313,l),
(485,323,l),
(485,393,o),
(540,451,o),
(614,451,cs),
(680,451,o),
(732,408,o),
(732,344,cs),
(732,30,ls),
(732,8,o),
(749,-10,o),
(771,-10,cs),
(793,-10,o),
(811,8,o),
(811,30,cs),
(811,344,ls),
(811,468,o),
(713,530,o),
(621,530,cs),
(546,530,o),
(487,483,o),
(457,444,c)
);
}
);
width = 871;
}
);
metricLeft = "=n";
metricRight = "=n";
unicode = 109;
},
{
glyphname = n;
lastChange = "2021-07-12 14:59:19 +0000";
layers = (
{
anchors = (
{
name = bottom;
pos = (275,0);
},
{
name = top;
pos = (275,515);
}
);
layerId = "65988B1E-DCE2-4AC3-A6FF-994A1050067D";
shapes = (
{
closed = 1;
nodes = (
(150,463,l),
(150,485,ls),
(150,507,o),
(132,525,o),
(110,525,cs),
(88,525,o),
(70,507,o),
(70,485,cs),
(70,30,ls),
(70,8,o),
(88,-10,o),
(110,-10,cs),
(132,-10,o),
(150,8,o),
(150,30,cs)
);
},
{
closed = 1;
nodes = (
(139,343,l),
(150,353,l),
(150,403,o),
(215,451,o),
(290,451,cs),
(354,451,o),
(409,413,o),
(409,344,cs),
(409,30,ls),
(409,8,o),
(427,-10,o),
(449,-10,cs),
(471,-10,o),
(489,8,o),
(489,30,cs),
(489,344,ls),
(489,468,o),
(390,530,o),
(297,530,cs),
(221,530,o),
(167,489,o),
(139,449,c)
);
}
);
width = 549;
}
);
unicode = 110;
},
{
glyphname = n.ss01;
lastChange = "2021-07-07 18:16:21 +0000";
layers = (
{
layerId = "65988B1E-DCE2-4AC3-A6FF-994A1050067D";
shapes = (
{
closed = 1;
nodes = (
(150,333,ls),
(150,403,o),
(215,451,o),
(290,451,cs),
(358,451,o),
(409,413,o),
(409,344,cs),
(409,30,ls),
(409,8,o),
(427,-10,o),
(449,-10,cs),
(471,-10,o),
(489,8,o),
(489,30,cs),
(489,344,ls),
(489,468,o),
(390,530,o),
(297,530,cs),
(231,530,o),
(166,493,o),
(147,444,c),
(144,444,l),
(146,454,o),
(150,463,o),
(150,479,cs),
(150,485,ls),
(150,507,o),
(132,525,o),
(110,525,cs),
(88,525,o),
(70,507,o),
(70,485,cs),
(70,30,ls),
(70,8,o),
(88,-10,o),
(110,-10,cs),
(132,-10,o),
(150,8,o),
(150,30,cs)
);
}
);
width = 549;
}
);
metricLeft = "=n";
metricRight = "=n";
},
{
glyphname = n.ss02;
lastChange = "2021-07-03 04:36:08 +0000";
layers = (
{
layerId = "65988B1E-DCE2-4AC3-A6FF-994A1050067D";
shapes = (
{
closed = 1;
nodes = (
(150,313,ls),
(150,403,o),
(215,451,o),
(290,451,cs),
(359,451,o),
(409,415,o),
(409,344,cs),
(409,30,ls),
(409,8,o),
(427,-10,o),
(449,-10,cs),
(471,-10,o),
(489,8,o),
(489,30,cs),
(489,344,ls),
(489,468,o),
(390,530,o),
(305,530,cs),
(231,530,o),
(166,483,o),
(153,434,c),
(151,427,o),
(150,431,o),
(150,434,c),
(150,473,l),
(150,485,ls),
(150,507,o),
(132,525,o),
(110,525,cs),
(88,525,o),
(70,507,o),
(70,485,cs),
(70,30,ls),
(70,8,o),
(88,-10,o),
(110,-10,cs),
(132,-10,o),
(150,8,o),
(150,30,cs)
);
}
);
width = 549;
}
);
metricLeft = "=n";
metricRight = "=n";
},
{
glyphname = o;
lastChange = "2021-07-10 03:01:01 +0000";
layers = (
{
layerId = "65988B1E-DCE2-4AC3-A6FF-994A1050067D";
shapes = (
{
closed = 1;
nodes = (
(421,136,o),
(368,62,o),
(268,62,cs),
(168,62,o),
(115,136,o),
(115,259,cs),
(115,378,o),
(168,453,o),
(268,453,cs),
(368,453,o),
(421,378,o),
(421,259,cs)
);
},
{
closed = 1;
nodes = (
(501,413,o),
(411,530,o),
(268,530,cs),
(125,530,o),
(35,413,o),
(35,259,cs),
(35,101,o),
(125,-15,o),
(268,-15,cs),
(411,-15,o),
(501,101,o),
(501,259,cs)
);
}
);
width = 536;
}
);
unicode = 111;
},
{
glyphname = p;
lastChange = "2021-07-07 17:09:21 +0000";
layers = (
{
layerId = "65988B1E-DCE2-4AC3-A6FF-994A1050067D";
shapes = (
{
closed = 1;
nodes = (
(450,134,o),
(393,62,o),
(297,62,cs),
(201,62,o),
(150,129,o),
(150,257,cs),
(150,385,o),
(201,452,o),
(295,453,cs),
(396,454,o),
(450,382,o),
(450,257,cs)
);
},
{
closed = 1;
nodes = (
(530,401,o),
(451,529,o),
(313,530,cs),
(241,530,o),
(177,495,o),
(134,441,c),
(150,423,l),
(150,484,ls),
(150,507,o),
(132,525,o),
(110,525,cs),
(88,525,o),
(70,507,o),
(70,484,cs),
(70,-175,ls),
(70,-197,o),
(88,-215,o),
(110,-215,cs),
(132,-215,o),
(150,-197,o),
(150,-175,cs),
(150,88,l),
(133,72,l),
(175,19,o),
(238,-15,o),
(312,-15,cs),
(451,-15,o),
(530,113,o),
(530,257,cs)
);
}
);
width = 600;
}
);
unicode = 112;
},
{
glyphname = q;
lastChange = "2021-07-07 17:09:21 +0000";
layers = (
{
layerId = "65988B1E-DCE2-4AC3-A6FF-994A1050067D";
shapes = (
{
closed = 1;
nodes = (
(150,382,o),
(204,454,o),
(305,453,cs),
(399,452,o),
(450,385,o),
(450,257,cs),
(450,129,o),
(399,62,o),
(303,62,cs),
(207,62,o),
(150,134,o),
(150,257,cs)
);
},
{
closed = 1;
nodes = (
(70,113,o),
(145,-15,o),
(284,-15,cs),
(355,-15,o),
(422,20,o),
(467,78,c),
(450,94,l),
(450,-175,ls),
(450,-197,o),
(468,-215,o),
(490,-215,cs),
(512,-215,o),
(530,-197,o),
(530,-175,cs),
(530,484,ls),
(530,507,o),
(512,525,o),
(490,525,cs),
(468,525,o),
(450,507,o),
(450,484,cs),
(450,423,l),
(466,441,l),
(423,495,o),
(369,530,o),
(297,530,cs),
(159,529,o),
(70,401,o),
(70,257,cs)
);
}
);
width = 600;
}
);
unicode = 113;
},
{
glyphname = r;
lastChange = "2021-07-07 17:09:21 +0000";
layers = (
{
background = {
shapes = (
{
pos = (-20,0);
ref = n;
}
);
};
layerId = "65988B1E-DCE2-4AC3-A6FF-994A1050067D";
shapes = (
{
closed = 1;
nodes = (
(130,485,ls),
(130,507,o),
(112,525,o),
(90,525,cs),
(67,525,o),
(50,507,o),
(50,485,cs),
(50,30,ls),
(50,8,o),
(67,-10,o),
(90,-10,cs),
(112,-10,o),
(130,8,o),
(130,30,cs)
);
},
{
closed = 1;
nodes = (
(121,333,l),
(130,334,l),
(130,390,o),
(195,445,o),
(277,445,cs),
(299,445,o),
(317,463,o),
(317,485,cs),
(317,507,o),
(299,525,o),
(269,525,cs),
(201,525,o),
(156,494,o),
(130,457,c),
(121,457,l)
);
}
);
width = 347;
}
);
unicode = 114;
},
{
glyphname = s;
lastChange = "2021-07-06 21:40:53 +0000";
layers = (
{
layerId = "65988B1E-DCE2-4AC3-A6FF-994A1050067D";
shapes = (
{
closed = 1;
nodes = (
(44,89,o),
(82,-15,o),
(247,-15,cs),
(394,-15,o),
(435,83,o),
(434,146,cs),
(430,335,o),
(128,261,o),
(128,378,cs),
(128,416,o),
(160,453,o),
(236,453,cs),
(325,453,o),
(340,415,o),
(348,391,cs),
(353,375,o),
(368,363,o),
(386,363,cs),
(413,363,o),
(432,388,o),
(424,415,cs),
(415,445,o),
(379,530,o),
(236,530,cs),
(111,530,o),
(53,445,o),
(51,368,cs),
(46,183,o),
(357,247,o),
(357,146,cs),
(357,100,o),
(333,62,o),
(247,62,cs),
(145,62,o),
(123,106,o),
(120,143,cs),
(118,164,o),
(101,180,o),
(80,180,cs),
(56,180,o),
(38,159,o),
(40,137,cs)
);
}
);
width = 481;
}
);
unicode = 115;
},
{
glyphname = germandbls;
lastChange = "2021-07-10 02:23:57 +0000";
layers = (
{
background = {
shapes = (
{
closed = 1;
nodes = (
(-941,35,o),
(-868,-8,o),
(-792,-5,cs),
(-703,-2,o),
(-634,58,o),
(-634,151,cs),
(-634,242,o),
(-706,272,o),
(-780,298,cs),
(-834,318,o),
(-860,329,o),
(-860,365,cs),
(-860,416,o),
(-805,464,o),
(-709,464,c),
(-693,629,o),
(-776,721,o),
(-903,721,cs),
(-1016,721,o),
(-1098,643,o),
(-1098,532,cs),
(-1099,33,ls),
(-1099,10,o),
(-1081,-8,o),
(-1058,-8,cs),
(-1035,-8,o),
(-1017,10,o),
(-1017,33,cs),
(-1016,532,ls),
(-1016,601,o),
(-975,641,o),
(-907,641,cs),
(-835,641,o),
(-795,598,o),
(-795,524,c),
(-884,501,o),
(-942,435,o),
(-942,358,cs),
(-942,277,o),
(-879,248,o),
(-807,223,cs),
(-749,202,o),
(-716,190,o),
(-716,144,cs),
(-716,102,o),
(-744,79,o),
(-792,77,cs),
(-845,75,o),
(-883,98,o),
(-908,140,cs),
(-915,152,o),
(-928,160,o),
(-943,160,cs),
(-966,160,o),
(-984,142,o),
(-984,119,cs),
(-984,111,o),
(-982,104,o),
(-978,98,cs)
);
},
{
closed = 1;
nodes = (
(-392,564,ls),
(-392,617,o),
(-359,652,o),
(-301,652,cs),
(-243,652,o),
(-210,615,o),
(-210,559,cs),
(-210,500,o),
(-246,451,o),
(-311,451,c),
(-311,374,l),
(-220,374,o),
(-164,319,o),
(-164,232,cs),
(-164,143,o),
(-218,87,o),
(-310,82,cs),
(-332,81,o),
(-349,63,o),
(-349,41,cs),
(-349,17,o),
(-328,0,o),
(-306,0,cs),
(-176,0,o),
(-82,102,o),
(-82,231,cs),
(-82,361,o),
(-182,451,o),
(-311,451,c),
(-311,374,l),
(-208,374,o),
(-128,458,o),
(-128,559,cs),
(-128,658,o),
(-201,729,o),
(-306,729,cs),
(-405,729,o),
(-474,666,o),
(-474,564,cs),
(-474,32,ls),
(-474,9,o),
(-456,-9,o),
(-433,-9,cs),
(-410,-9,o),
(-392,9,o),
(-392,32,cs)
);
},
{
closed = 1;
nodes = (
(-1138,517,ls),
(-1159,517,o),
(-1176,500,o),
(-1176,479,cs),
(-1176,458,o),
(-1159,441,o),
(-1138,441,cs),
(-1057,441,l),
(-1057,517,l)
);
},
{
closed = 1;
nodes = (
(-508,515,ls),
(-529,515,o),
(-546,498,o),
(-546,477,cs),
(-546,456,o),
(-529,439,o),
(-508,439,cs),
(-427,439,l),
(-427,515,l)
);
},
{
pos = (546,0);
ref = a;
scale = (-1,1);
}
);
};
layerId = "65988B1E-DCE2-4AC3-A6FF-994A1050067D";
shapes = (
{
closed = 1;
nodes = (
(167,66,ls),
(167,16,o),
(142,-8,o),
(110,-8,cs),
(97,-8,ls),
(64,-8,o),
(45,9,o),
(45,32,cs),
(45,53,o),
(61,72,o),
(80,72,cs),
(87,72,o),
(87,82,o),
(87,101,cs),
(87,534,ls),
(87,693,o),
(209,721,o),
(272,721,cs),
(404,721,o),
(455,627,o),
(455,570,cs),
(455,491,o),
(407,450,o),
(376,422,cs),
(352,401,o),
(330,389,o),
(330,360,cs),
(330,333,o),
(351,315,o),
(395,286,cs),
(437,257,o),
(501,219,o),
(501,133,cs),
(501,55,o),
(452,-17,o),
(338,-17,cs),
(286,-17,o),
(252,-8,o),
(230,12,cs),
(222,20,o),
(218,31,o),
(218,43,cs),
(218,65,o),
(234,83,o),
(253,83,cs),
(262,83,o),
(268,79,o),
(275,74,cs),
(286,67,o),
(301,63,o),
(338,63,cs),
(401,63,o),
(421,92,o),
(421,133,cs),
(421,169,o),
(400,187,o),
(358,214,cs),
(302,252,o),
(250,287,o),
(250,365,cs),
(256,423,o),
(291,454,o),
(322,482,cs),
(353,509,o),
(375,528,o),
(375,570,cs),
(375,600,o),
(342,641,o),
(272,641,cs),
(221,641,o),
(167,628,o),
(167,534,cs),
(167,111,l)
);
}
);
width = 538;
}
);
metricLeft = "=|a";
metricRight = "=s-10";
unicode = 223;
},
{
glyphname = germandbls.ss01;
lastChange = "2021-07-10 02:26:11 +0000";
layers = (
{
background = {
shapes = (
{
closed = 1;
nodes = (
(-958,35,o),
(-885,-8,o),
(-809,-5,cs),
(-720,-2,o),
(-651,58,o),
(-651,151,cs),
(-651,242,o),
(-723,272,o),
(-797,298,cs),
(-851,318,o),
(-877,329,o),
(-877,365,cs),
(-877,416,o),
(-822,464,o),
(-726,464,c),
(-710,629,o),
(-793,721,o),
(-920,721,cs),
(-1033,721,o),
(-1115,643,o),
(-1115,532,cs),
(-1116,33,ls),
(-1116,10,o),
(-1098,-8,o),
(-1075,-8,cs),
(-1052,-8,o),
(-1034,10,o),
(-1034,33,cs),
(-1033,532,ls),
(-1033,601,o),
(-992,641,o),
(-924,641,cs),
(-852,641,o),
(-812,598,o),
(-812,524,c),
(-901,501,o),
(-959,435,o),
(-959,358,cs),
(-959,277,o),
(-896,248,o),
(-824,223,cs),
(-766,202,o),
(-733,190,o),
(-733,144,cs),
(-733,102,o),
(-761,79,o),
(-809,77,cs),
(-862,75,o),
(-900,98,o),
(-925,140,cs),
(-932,152,o),
(-945,160,o),
(-960,160,cs),
(-983,160,o),
(-1001,142,o),
(-1001,119,cs),
(-1001,111,o),
(-999,104,o),
(-995,98,cs)
);
},
{
closed = 1;
nodes = (
(-409,564,ls),
(-409,617,o),
(-376,652,o),
(-318,652,cs),
(-260,652,o),
(-227,615,o),
(-227,559,cs),
(-227,500,o),
(-263,451,o),
(-328,451,c),
(-328,374,l),
(-237,374,o),
(-181,319,o),
(-181,232,cs),
(-181,143,o),
(-235,87,o),
(-327,82,cs),
(-349,81,o),
(-366,63,o),
(-366,41,cs),
(-366,17,o),
(-345,0,o),
(-323,0,cs),
(-193,0,o),
(-99,102,o),
(-99,231,cs),
(-99,361,o),
(-199,451,o),
(-328,451,c),
(-328,374,l),
(-225,374,o),
(-145,458,o),
(-145,559,cs),
(-145,658,o),
(-218,729,o),
(-323,729,cs),
(-422,729,o),
(-491,666,o),
(-491,564,cs),
(-491,32,ls),
(-491,9,o),
(-473,-9,o),
(-450,-9,cs),
(-427,-9,o),
(-409,9,o),
(-409,32,cs)
);
},
{
closed = 1;
nodes = (
(-1155,517,ls),
(-1176,517,o),
(-1193,500,o),
(-1193,479,cs),
(-1193,458,o),
(-1176,441,o),
(-1155,441,cs),
(-1074,441,l),
(-1074,517,l)
);
},
{
closed = 1;
nodes = (
(-525,515,ls),
(-546,515,o),
(-563,498,o),
(-563,477,cs),
(-563,456,o),
(-546,439,o),
(-525,439,cs),
(-444,439,l),
(-444,515,l)
);
},
{
pos = (529,0);
ref = a;
scale = (-1,1);
}
);
};
layerId = "65988B1E-DCE2-4AC3-A6FF-994A1050067D";
shapes = (
{
closed = 1;
nodes = (
(150,534,ls),
(150,628,o),
(204,641,o),
(255,641,cs),
(325,641,o),
(358,600,o),
(358,570,cs),
(358,528,o),
(336,509,o),
(305,482,cs),
(274,454,o),
(239,423,o),
(233,365,cs),
(233,287,o),
(285,252,o),
(341,214,cs),
(383,187,o),
(404,169,o),
(404,133,cs),
(404,92,o),
(384,63,o),
(321,63,cs),
(284,63,o),
(269,67,o),
(258,74,cs),
(251,79,o),
(245,83,o),
(236,83,cs),
(217,83,o),
(201,65,o),
(201,43,cs),
(201,31,o),
(205,20,o),
(213,12,cs),
(235,-8,o),
(269,-17,o),
(321,-17,cs),
(435,-17,o),
(484,55,o),
(484,133,cs),
(484,219,o),
(420,257,o),
(378,286,cs),
(334,315,o),
(313,333,o),
(313,360,cs),
(313,389,o),
(335,401,o),
(359,422,cs),
(390,450,o),
(438,491,o),
(438,570,cs),
(438,627,o),
(387,721,o),
(255,721,cs),
(192,721,o),
(70,693,o),
(70,534,cs),
(70,30,ls),
(70,8,o),
(87,-10,o),
(110,-10,cs),
(132,-10,o),
(150,8,o),
(150,30,cs)
);
}
);
width = 521;
}
);
metricLeft = "=l";
metricRight = "=s-10";
},
{
glyphname = t;
lastChange = "2021-07-07 17:09:21 +0000";
layers = (
{
layerId = "65988B1E-DCE2-4AC3-A6FF-994A1050067D";
shapes = (
{
closed = 1;
nodes = (
(93,95,ls),
(93,40,o),
(127,-7,o),
(186,-7,cs),
(235,-7,ls),
(257,-7,o),
(275,11,o),
(275,33,cs),
(275,55,o),
(257,73,o),
(235,73,cs),
(199,73,ls),
(183,73,o),
(173,80,o),
(173,100,cs),
(173,567,ls),
(173,589,o),
(155,607,o),
(133,607,cs),
(111,607,o),
(93,589,o),
(93,567,cs)
);
},
{
closed = 1;
nodes = (
(241,442,ls),
(263,442,o),
(281,459,o),
(281,479,cs),
(281,499,o),
(263,515,o),
(241,515,cs),
(70,515,ls),
(48,515,o),
(30,499,o),
(30,479,cs),
(30,458,o),
(48,442,o),
(70,442,cs)
);
}
);
width = 321;
}
);
unicode = 116;
},
{
glyphname = t.001;
lastChange = "2021-07-10 03:02:22 +0000";
layers = (
{
layerId = "65988B1E-DCE2-4AC3-A6FF-994A1050067D";
shapes = (
{
closed = 1;
nodes = (
(271,442,ls),
(293,442,o),
(311,459,o),
(311,479,cs),
(311,499,o),
(293,515,o),
(271,515,cs),
(70,515,ls),
(48,515,o),
(30,499,o),
(30,479,cs),
(30,458,o),
(48,442,o),
(70,442,cs)
);
},
{
closed = 1;
nodes = (
(291,31,o),
(295,40,o),
(295,54,cs),
(295,73,o),
(279,91,o),
(257,91,cs),
(245,91,o),
(235,86,o),
(229,81,cs),
(219,72,o),
(210,71,o),
(203,71,cs),
(182,71,o),
(177,91,o),
(177,117,cs),
(177,580,ls),
(177,602,o),
(159,620,o),
(137,620,cs),
(115,620,o),
(97,602,o),
(97,580,cs),
(97,117,ls),
(97,30,o),
(144,-9,o),
(206,-9,cs),
(232,-9,o),
(263,1,o),
(282,21,cs)
);
}
);
width = 351;
}
);
metricLeft = "=t";
metricRight = "=t";
},
{
glyphname = u;
lastChange = "2021-07-07 17:09:21 +0000";
layers = (
{
layerId = "65988B1E-DCE2-4AC3-A6FF-994A1050067D";
shapes = (
{
closed = 1;
nodes = (
(397,52,l),
(397,30,ls),
(397,8,o),
(415,-10,o),
(437,-10,cs),
(459,-10,o),
(477,8,o),
(477,30,cs),
(477,485,ls),
(477,507,o),
(459,525,o),
(437,525,cs),
(415,525,o),
(397,507,o),
(397,485,cs)
);
},
{
closed = 1;
nodes = (
(408,172,l),
(397,162,l),
(397,112,o),
(332,64,o),
(259,64,cs),
(184,64,o),
(140,98,o),
(140,191,cs),
(140,485,ls),
(140,507,o),
(122,525,o),
(100,525,cs),
(78,525,o),
(60,507,o),
(60,485,cs),
(60,191,ls),
(60,39,o),
(158,-15,o),
(252,-15,cs),
(326,-15,o),
(380,26,o),
(408,66,c)
);
}
);
width = 547;
}
);
metricLeft = "=|n";
metricRight = "=|n";
unicode = 117;
},
{
glyphname = v;
lastChange = "2021-07-07 17:09:21 +0000";
layers = (
{
layerId = "65988B1E-DCE2-4AC3-A6FF-994A1050067D";
shapes = (
{
closed = 1;
nodes = (
(229,-23,o),
(281,-20,o),
(296,20,cs),
(469,471,ls),
(479,496,o),
(464,526,o),
(435,526,cs),
(418,526,o),
(404,516,o),
(398,501,cs),
(225,40,l),
(279,58,l),
(107,501,ls),
(101,516,o),
(87,526,o),
(70,526,cs),
(41,526,o),
(23,496,o),
(33,471,cs),
(212,19,ls)
);
}
);
width = 502;
}
);
unicode = 118;
},
{
glyphname = w;
lastChange = "2021-07-07 17:09:21 +0000";
layers = (
{
layerId = "65988B1E-DCE2-4AC3-A6FF-994A1050067D";
shapes = (
{
closed = 1;
nodes = (
(185,-21,o),
(243,-21,o),
(256,23,cs),
(357,369,l),
(345,369,l),
(446,23,ls),
(459,-21,o),
(514,-21,o),
(527,22,cs),
(666,472,ls),
(673,496,o),
(661,525,o),
(631,525,cs),
(613,525,o),
(598,514,o),
(593,498,cs),
(484,118,l),
(495,118,l),
(393,474,ls),
(380,520,o),
(325,520,o),
(312,474,cs),
(208,110,l),
(220,110,l),
(108,498,ls),
(103,514,o),
(88,525,o),
(70,525,cs),
(40,525,o),
(24,496,o),
(32,472,cs),
(172,22,ls)
);
}
);
width = 698;
}
);
metricLeft = v;
metricRight = v;
unicode = 119;
},
{
glyphname = x;
lastChange = "2021-07-07 17:09:21 +0000";
layers = (
{
layerId = "65988B1E-DCE2-4AC3-A6FF-994A1050067D";
shapes = (
{
closed = 1;
nodes = (
(105,499,ls),
(97,509,o),
(86,515,o),
(73,515,cs),
(51,515,o),
(33,497,o),
(33,475,cs),
(33,466,o),
(36,458,o),
(41,451,cs),
(374,16,ls),
(381,7,o),
(393,0,o),
(406,0,cs),
(428,0,o),
(446,18,o),
(446,40,cs),
(446,49,o),
(443,57,o),
(438,64,cs)
);
},
{
closed = 1;
nodes = (
(430,451,ls),
(435,457,o),
(438,466,o),
(438,475,cs),
(438,497,o),
(420,515,o),
(398,515,cs),
(385,515,o),
(374,509,o),
(366,499,cs),
(38,64,ls),
(33,58,o),
(30,49,o),
(30,40,cs),
(30,18,o),
(48,0,o),
(70,0,cs),
(83,0,o),
(94,6,o),
(102,16,cs)
);
}
);
width = 476;
}
);
unicode = 120;
},
{
glyphname = y;
lastChange = "2021-07-07 17:09:21 +0000";
layers = (
{
layerId = "65988B1E-DCE2-4AC3-A6FF-994A1050067D";
shapes = (
{
closed = 1;
nodes = (
(248,118,l),
(107.386,488.238,ls),
(102,503,o),
(87.076,514,o),
(70,514,cs),
(41,514,o),
(23,485,o),
(32.614,459.762,cs),
(203,13,l)
);
},
{
closed = 1;
nodes = (
(144,-180,ls),
(187,-180,o),
(215,-153,o),
(226.632,-123.576,cs),
(448.395,459.785,ls),
(458,485,o),
(440,514,o),
(411,514,cs),
(393.916,514,o),
(383,503,o),
(377,488,cs),
(158,-87,ls),
(153,-100,o),
(138,-100,o),
(135,-100,cs),
(101,-100,ls),
(79,-100,o),
(61,-118,o),
(61,-140,cs),
(61,-162,o),
(79,-180,o),
(101,-180,cs)
);
}
);
width = 481;
}
);
metricLeft = v;
metricRight = v;
unicode = 121;
},
{
glyphname = z;
lastChange = "2021-07-07 17:09:21 +0000";
layers = (
{
layerId = "65988B1E-DCE2-4AC3-A6FF-994A1050067D";
shapes = (
{
closed = 1;
nodes = (
(93,79,l),
(122,24,l),
(420.002,445.403,ls),
(441,475,o),
(420,514,o),
(384.071,514,cs),
(102.071,515,ls),
(80,515,o),
(62,497.092,o),
(62,475,cs),
(62,452.908,o),
(80,437,o),
(102,437,cs),
(384,436,l),
(356,491,l),
(57.998,69.597,ls),
(38,41,o),
(57.4,1,o),
(93,1,cs),
(396,1,ls),
(418.092,1,o),
(436,18.908,o),
(436,41,cs),
(436,63.092,o),
(418,79,o),
(396,79,cs)
);
}
);
width = 486;
}
);
unicode = 122;
},
{
color = 0;
export = 0;
glyphname = b.bad;
lastChange = "2021-07-07 17:31:47 +0000";
layers = (
{
layerId = "65988B1E-DCE2-4AC3-A6FF-994A1050067D";
shapes = (
{
closed = 1;
nodes = (
(450,133,o),
(396,61,o),
(295,62,cs),
(201,63,o),
(150,130,o),
(150,258,cs),
(150,386,o),
(201,453,o),
(297,453,cs),
(393,453,o),
(450,381,o),
(450,258,cs)
);
},
{
closed = 1;
nodes = (
(530,402,o),
(451,530,o),
(312,530,cs),
(241,530,o),
(180,496,o),
(134,443,c),
(134,446,l),
(150,472,l),
(150,685,ls),
(150,707,o),
(132,725,o),
(110,725,cs),
(88,725,o),
(70,707,o),
(70,685,cs),
(70,31,ls),
(70,8,o),
(88,-10,o),
(110,-10,cs),
(132,-10,o),
(150,8,o),
(150,31,cs),
(150,45,l),
(134,71,l),
(134,74,l),
(179,20,o),
(241,-15,o),
(313,-15,cs),
(451,-14,o),
(530,114,o),
(530,258,cs)
);
}
);
width = 572;
}
);
metricLeft = "=b";
metricRight = "=b";
},
{
color = 0;
export = 0;
glyphname = e.bad;
lastChange = "2021-07-07 19:33:56 +0000";
layers = (
{
layerId = "65988B1E-DCE2-4AC3-A6FF-994A1050067D";
shapes = (
{
closed = 1;
nodes = (
(388,-15,o),
(461,65,o),
(477,120,cs),
(487,154,o),
(474,180,o),
(445,180,cs),
(420,180,o),
(411,162,o),
(402,140,cs),
(389,109,o),
(347,62,o),
(274,62,cs),
(197,62,o),
(125,115,o),
(125,260,cs),
(125,386,o),
(185,453,o),
(272,453,cs),
(367,453,o),
(418,373,o),
(419,282,c),
(448,307,l),
(109,307,l),
(109,234,l),
(436,234,ls),
(474,234,o),
(493,255,o),
(493,293,cs),
(493,422,o),
(405,530,o),
(275,530,cs),
(144,530,o),
(45,420,o),
(45,255,cs),
(45,76,o),
(156,-15,o),
(276,-15,cs)
);
}
);
width = 538;
}
);
metricLeft = "=o";
metricRight = "=o";
},
{
color = 0;
export = 0;
glyphname = h.bad;
lastChange = "2021-07-07 17:31:47 +0000";
layers = (
{
layerId = "65988B1E-DCE2-4AC3-A6FF-994A1050067D";
shapes = (
{
closed = 1;
nodes = (
(150,258,ls),
(150,403,o),
(215,451,o),
(288,451,cs),
(351,451,o),
(405,417,o),
(405,344,cs),
(405,30,ls),
(405,8,o),
(423,-10,o),
(445,-10,cs),
(467,-10,o),
(485,8,o),
(485,30,cs),
(485,344,ls),
(485,468,o),
(385,530,o),
(302,530,cs),
(230,530,o),
(168,484,o),
(153,434,c),
(150,434,l),
(150,472,l),
(150,690,ls),
(150,712,o),
(132,730,o),
(110,730,cs),
(87,730,o),
(70,712,o),
(70,690,cs),
(70,30,ls),
(70,8,o),
(87,-10,o),
(110,-10,cs),
(132,-10,o),
(150,8,o),
(150,30,cs)
);
}
);
width = 545;
}
);
metricLeft = "=h";
metricRight = "=h";
},
{
glyphname = period;
lastChange = "2021-07-12 14:53:44 +0000";
layers = (
{
associatedMasterId = "65988B1E-DCE2-4AC3-A6FF-994A1050067D";
layerId = m01;
name = Medium;
shapes = (
{
closed = 1;
nodes = (
(126,66,l),
(126,89,o),
(106,109,o),
(77,109,c),
(48,109,o),
(30,89,o),
(30,66,c),
(30,42,l),
(30,18,o),
(48,0,o),
(77,0,c),
(106,0,o),
(126,18,o),
(126,42,c)
);
}
);
width = 156;
},
{
associatedMasterId = "65988B1E-DCE2-4AC3-A6FF-994A1050067D";
background = {
shapes = (
{
closed = 1;
nodes = (
(162,87,l),
(162,121,o),
(132,151,o),
(94,151,c),
(57,151,o),
(30,121,o),
(30,87,c),
(30,63,l),
(30,27,o),
(57,0,o),
(94,0,c),
(132,0,o),
(162,27,o),
(162,63,c)
);
},
{
attr = {
lineCapEnd = "2";
lineCapStart = "2";
strokeHeight = 130;
strokeWidth = 130;
};
closed = 1;
nodes = (
(262,82,ls),
(262,87,o),
(266,90,o),
(270,90,cs),
(274,90,o),
(278,87,o),
(278,82,cs),
(278,77,ls),
(278,72,o),
(274,69,o),
(270,69,cs),
(266,69,o),
(262,72,o),
(262,77,cs)
);
}
);
};
layerId = m004;
name = ExtraBold;
shapes = (
{
closed = 1;
nodes = (
(162,87,l),
(162,121,o),
(132,151,o),
(94,151,c),
(57,151,o),
(30,121,o),
(30,87,c),
(30,63,l),
(30,27,o),
(57,0,o),
(94,0,c),
(132,0,o),
(162,27,o),
(162,63,c)
);
}
);
width = 192;
},
{
layerId = "65988B1E-DCE2-4AC3-A6FF-994A1050067D";
shapes = (
{
closed = 1;
nodes = (
(134,50,ls),
(134,74,o),
(115,95,o),
(86,95,cs),
(57,95,o),
(40,74,o),
(40,50,cs),
(40,33,ls),
(40,9,o),
(57,-10,o),
(86,-10,cs),
(115,-10,o),
(134,9,o),
(134,33,cs)
);
}
);
width = 174;
}
);
unicode = 46;
},
{
glyphname = exclam;
lastChange = "2021-07-10 03:09:36 +0000";
layers = (
{
layerId = "65988B1E-DCE2-4AC3-A6FF-994A1050067D";
shapes = (
{
attr = {
lineCapEnd = "1";
lineCapStart = "1";
strokeHeight = 80;
strokeWidth = 80;
};
closed = 0;
nodes = (
(106,661,l),
(106,213,l)
);
}
);
width = 209;
}
);
unicode = 33;
},
{
glyphname = question;
lastChange = "2021-07-10 03:09:36 +0000";
layers = (
{
layerId = "65988B1E-DCE2-4AC3-A6FF-994A1050067D";
shapes = (
{
attr = {
lineCapEnd = "1";
lineCapStart = "1";
strokeHeight = 80;
strokeWidth = 80;
};
closed = 0;
nodes = (
(79,518,l),
(79,605,o),
(147,662,o),
(244,662,cs),
(334,662,o),
(406,601,o),
(406,522,cs),
(406,430,o),
(359,392,o),
(303,344,cs),
(256,307,o),
(226,267,o),
(226,202,c)
);
}
);
width = 493;
}
);
unicode = 63;
},
{
glyphname = asterisk;
lastChange = "2021-07-07 16:43:38 +0000";
layers = (
{
layerId = "65988B1E-DCE2-4AC3-A6FF-994A1050067D";
shapes = (
{
closed = 1;
nodes = (
(266.5,677,l),
(266.5,698.263,o),
(249.263,715.5,o),
(228,715.5,c),
(206.737,715.5,o),
(189.5,698.263,o),
(189.5,677,c),
(189.5,526,l),
(189.5,504.737,o),
(206.737,487.5,o),
(228,487.5,c),
(249.263,487.5,o),
(266.5,504.737,o),
(266.5,526,c)
);
},
{
closed = 1;
nodes = (
(228,484.975,l),
(384.103,535.92,l),
(399.718,541.007,o),
(411,555.686,o),
(411,573,c),
(411,594.539,o),
(393.539,612,o),
(372,612,c),
(367.775,612,o),
(363.706,611.328,o),
(359.897,610.08,c),
(228,567.025,l),
(96.103,610.08,l),
(92.294,611.328,o),
(88.225,612,o),
(84,612,c),
(62.461,612,o),
(45,594.539,o),
(45,573,c),
(45,555.686,o),
(56.282,541.007,o),
(71.897,535.92,c)
);
},
{
closed = 1;
nodes = (
(228,459.955,l),
(286.525,379.969,l),
(293.62,370.286,o),
(305.076,364,o),
(318,364,c),
(339.539,364,o),
(357,381.461,o),
(357,403,c),
(357,411.615,o),
(354.207,419.578,o),
(349.475,426.031,c),
(228,592.044,l),
(106.525,426.031,l),
(101.793,419.578,o),
(99,411.615,o),
(99,403,c),
(99,381.461,o),
(116.461,364,o),
(138,364,c),
(150.924,364,o),
(162.38,370.286,o),
(169.475,379.969,c)
);
}
);
width = 456;
}
);
unicode = 42;
},
{
glyphname = hyphen;
lastChange = "2021-07-10 03:09:02 +0000";
layers = (
{
layerId = "65988B1E-DCE2-4AC3-A6FF-994A1050067D";
shapes = (
{
attr = {
lineCapEnd = "1";
lineCapStart = "1";
strokeHeight = 80;
strokeWidth = 80;
};
closed = 0;
nodes = (
(308,258,l),
(70,258,l)
);
}
);
width = 378;
}
);
unicode = 45;
},
{
glyphname = endash;
lastChange = "2021-07-10 03:09:02 +0000";
layers = (
{
layerId = "65988B1E-DCE2-4AC3-A6FF-994A1050067D";
shapes = (
{
attr = {
lineCapEnd = "2";
lineCapStart = "2";
strokeHeight = 80;
strokeWidth = 80;
};
closed = 0;
nodes = (
(445,258,l),
(32,258,l)
);
}
);
width = 477;
}
);
unicode = 8211;
},
{
glyphname = emdash;
lastChange = "2021-07-10 03:09:02 +0000";
layers = (
{
layerId = "65988B1E-DCE2-4AC3-A6FF-994A1050067D";
shapes = (
{
attr = {
lineCapEnd = "2";
lineCapStart = "2";
strokeHeight = 80;
strokeWidth = 80;
};
closed = 0;
nodes = (
(749,258,l),
(32,258,l)
);
}
);
width = 781;
}
);
unicode = 8212;
},
{
glyphname = parenleft;
lastChange = "2021-07-10 03:09:02 +0000";
layers = (
{
layerId = "65988B1E-DCE2-4AC3-A6FF-994A1050067D";
shapes = (
{
attr = {
lineCapEnd = "1";
lineCapStart = "1";
strokeHeight = 80;
strokeWidth = 80;
};
closed = 0;
nodes = (
(201,751,l),
(139,684,o),
(90,507,o),
(90,304,cs),
(90,108,o),
(139,-63,o),
(201,-130,c)
);
}
);
width = 241;
}
);
unicode = 40;
},
{
glyphname = braceleft;
lastChange = "2021-07-10 03:09:02 +0000";
layers = (
{
layerId = "65988B1E-DCE2-4AC3-A6FF-994A1050067D";
shapes = (
{
attr = {
lineCapEnd = "1";
lineCapStart = "1";
strokeHeight = 80;
strokeWidth = 80;
};
closed = 0;
nodes = (
(260,756,l),
(242,756,ls),
(193,756,o),
(149,705,o),
(149,649,cs),
(149,442,ls),
(149,389,o),
(119,361,o),
(98,344,cs),
(88,335,o),
(88,323,o),
(97,315,cs),
(118,296,o),
(149,266,o),
(149,210,cs),
(149,-28,ls),
(149,-84,o),
(193,-135,o),
(242,-135,cs),
(260,-135,l)
);
}
);
width = 260;
}
);
unicode = 123;
},
{
glyphname = bracketleft;
lastChange = "2021-07-10 03:09:02 +0000";
layers = (
{
layerId = "65988B1E-DCE2-4AC3-A6FF-994A1050067D";
shapes = (
{
attr = {
lineCapEnd = "1";
lineCapStart = "1";
strokeHeight = 80;
strokeWidth = 80;
};
closed = 0;
nodes = (
(205,759,l),
(121,759,ls),
(104,759,o),
(90,745,o),
(90,728,cs),
(90,-104,ls),
(90,-121,o),
(104,-135,o),
(121,-135,cs),
(205,-135,l)
);
}
);
width = 245;
}
);
unicode = 91;
},
{
glyphname = ampersand;
lastChange = "2021-07-10 03:04:55 +0000";
layers = (
{
background = {
shapes = (
{
closed = 0;
nodes = (
(440,529,l),
(440,605,o),
(385,662,o),
(309,662,cs),
(241,662,o),
(187,617,o),
(187,545,cs),
(187,411,o),
(372,250,o),
(624,25,c)
);
},
{
closed = 0;
nodes = (
(281,406,l),
(162,406,o),
(100,318,o),
(100,224,cs),
(100,110,o),
(197,44,o),
(310,44,cs),
(447,44,o),
(555,144,o),
(555,356,cs)
);
},
{
closed = 1;
nodes = (
(392,277,o),
(227,446,o),
(227,554,cs),
(227,603,o),
(261,635,o),
(312,635,cs),
(357,635,o),
(389,611,o),
(397,569,cs),
(401,551,o),
(417,538,o),
(436,538,cs),
(462,538,o),
(481,562,o),
(475,587,cs),
(454,668,o),
(393,715,o),
(311,715,cs),
(215,715,o),
(147,649,o),
(147,562,cs),
(147,416,o),
(337,217,o),
(569,5,cs),
(576,-1,o),
(585,-5,o),
(595,-5,cs),
(617,-5,o),
(635,13,o),
(635,35,cs),
(635,47,o),
(630,57,o),
(622,65,cs)
);
},
{
closed = 1;
nodes = (
(505,135,o),
(424,65,o),
(310,65,cs),
(209,65,o),
(138,124,o),
(138,222,cs),
(138,301,o),
(179,355,o),
(249,366,c),
(237,445,l),
(125,428,o),
(60,344,o),
(60,222,cs),
(60,70,o),
(164,-13,o),
(304,-13,cs),
(460,-13,o),
(581,91,o),
(594,301,cs),
(595,323,o),
(577,343,o),
(554,343,cs),
(533,343,o),
(515,326,o),
(514,305,cs)
);
},
{
closed = 1;
nodes = (
(392,277,o),
(227,446,o),
(227,554,cs),
(227,603,o),
(261,635,o),
(312,635,cs),
(357,635,o),
(389,611,o),
(397,569,cs),
(401,551,o),
(417,538,o),
(436,538,cs),
(462,538,o),
(481,562,o),
(475,587,cs),
(454,668,o),
(393,715,o),
(311,715,cs),
(215,715,o),
(147,649,o),
(147,562,cs),
(147,416,o),
(337,217,o),
(569,5,cs),
(576,-1,o),
(585,-5,o),
(595,-5,cs),
(617,-5,o),
(635,13,o),
(635,35,cs),
(635,47,o),
(630,57,o),
(622,65,cs)
);
},
{
closed = 1;
nodes = (
(390,640,o),
(427,601,o),
(447,553,cs),
(453,539,o),
(467,529,o),
(483,529,cs),
(504,529,o),
(522,547,o),
(522,568,cs),
(522,573,o),
(520,579,o),
(518,583,cs),
(489,652,o),
(425,715,o),
(311,715,cs),
(215,715,o),
(147,649,o),
(147,562,cs),
(147,416,o),
(337,217,o),
(569,5,cs),
(576,-1,o),
(585,-5,o),
(595,-5,cs),
(617,-5,o),
(635,13,o),
(635,35,cs),
(635,47,o),
(630,57,o),
(622,65,cs),
(392,277,o),
(227,446,o),
(227,554,cs),
(227,603,o),
(266,640,o),
(317,640,cs)
);
},
{
closed = 0;
nodes = (
(2230,545,l),
(2230,593,o),
(2269,624,o),
(2332,624,cs),
(2397,624,o),
(2440,592,o),
(2440,552,cs),
(2440,535,ls),
(2440,512,o),
(2458,494,o),
(2481,494,cs),
(2504,494,o),
(2522,512,o),
(2522,535,cs),
(2522,622,o),
(2453,703,o),
(2332,703,cs),
(2232,703,o),
(2150,643,o),
(2150,546,cs)
);
},
{
closed = 1;
nodes = (
(2172,-14,o),
(2064,130,o),
(2064,350,cs),
(2064,571,o),
(2182,715,o),
(2348,715,cs),
(2514,715,o),
(2632,571,o),
(2632,350,cs),
(2632,130,o),
(2524,-14,o),
(2348,-14,c)
);
},
{
closed = 1;
nodes = (
(2222,640,o),
(2146,521,o),
(2146,350,cs),
(2146,179,o),
(2222,61,o),
(2348,61,cs),
(2474,61,o),
(2550,179,o),
(2550,350,cs),
(2550,521,o),
(2474,640,o),
(2348,640,cs)
);
}
);
};
layerId = "65988B1E-DCE2-4AC3-A6FF-994A1050067D";
shapes = (
{
closed = 1;
nodes = (
(505,135,o),
(424,65,o),
(310,65,cs),
(209,65,o),
(138,124,o),
(138,222,cs),
(138,301,o),
(179,355,o),
(249,366,c),
(237,445,l),
(125,428,o),
(60,344,o),
(60,222,cs),
(60,70,o),
(164,-13,o),
(304,-13,cs),
(460,-13,o),
(581,91,o),
(594,301,cs),
(595,323,o),
(577,343,o),
(554,343,cs),
(533,343,o),
(515,326,o),
(514,305,cs)
);
},
{
closed = 1;
nodes = (
(1034,280,o),
(869,449,o),
(869,557,cs),
(869,606,o),
(903,638,o),
(954,638,cs),
(999,638,o),
(1031,614,o),
(1039,572,cs),
(1043,554,o),
(1059,541,o),
(1078,541,cs),
(1101,541,o),
(1118,559,o),
(1118,581,cs),
(1118,584,o),
(1118,587,o),
(1117,590,cs),
(1096,671,o),
(1035,718,o),
(953,718,cs),
(857,718,o),
(789,652,o),
(789,565,cs),
(789,419,o),
(979,220,o),
(1211,8,cs),
(1218,2,o),
(1227,-2,o),
(1237,-2,cs),
(1259,-2,o),
(1277,16,o),
(1277,38,cs),
(1277,50,o),
(1272,60,o),
(1264,68,cs)
);
},
{
closed = 1;
nodes = (
(1159,169,o),
(1077,63,o),
(952,63,cs),
(851,63,o),
(780,127,o),
(780,225,cs),
(780,304,o),
(821,358,o),
(891,369,c),
(879,448,l),
(767,431,o),
(702,347,o),
(702,225,cs),
(702,73,o),
(806,-14,o),
(946,-14,cs),
(1102,-14,o),
(1236,86,o),
(1236,313,cs),
(1236,371,o),
(1207,404,o),
(1156,404,cs),
(1130,404,o),
(1112,388,o),
(1112,367,cs),
(1112,351,o),
(1121,339,o),
(1142,328,cs),
(1154,322,o),
(1159,308,o),
(1159,272,cs)
);
},
{
closed = 1;
nodes = (
(390,640,o),
(427,601,o),
(447,553,cs),
(453,539,o),
(467,529,o),
(483,529,cs),
(504,529,o),
(519,547,o),
(519,565,cs),
(519,620,o),
(441,715,o),
(317,715,cs),
(215,715,o),
(147,649,o),
(147,562,cs),
(147,416,o),
(337,217,o),
(569,5,cs),
(576,-1,o),
(585,-5,o),
(595,-5,cs),
(617,-5,o),
(635,13,o),
(635,35,cs),
(635,47,o),
(630,57,o),
(622,65,cs),
(392,277,o),
(227,446,o),
(227,554,cs),
(227,603,o),
(266,640,o),
(317,640,cs)
);
},
{
closed = 1;
nodes = (
(1805,622,o),
(1736,703,o),
(1615,703,cs),
(1515,703,o),
(1433,643,o),
(1433,546,cs),
(1433,382,o),
(1656,187,o),
(1855,5,cs),
(1862,-1,o),
(1871,-5,o),
(1881,-5,cs),
(1903,-5,o),
(1921,13,o),
(1921,35,cs),
(1921,47,o),
(1916,57,o),
(1908,65,cs),
(1684,271,o),
(1513,437,o),
(1513,545,cs),
(1513,593,o),
(1552,624,o),
(1615,624,cs),
(1680,624,o),
(1723,592,o),
(1723,552,cs),
(1723,535,ls),
(1723,512,o),
(1741,494,o),
(1764,494,cs),
(1787,494,o),
(1805,512,o),
(1805,535,cs)
);
},
{
closed = 1;
nodes = (
(1803,135,o),
(1719,65,o),
(1605,65,cs),
(1504,65,o),
(1433,124,o),
(1433,222,cs),
(1433,301,o),
(1474,355,o),
(1544,366,c),
(1532,445,l),
(1420,428,o),
(1355,344,o),
(1355,222,cs),
(1355,70,o),
(1459,-13,o),
(1599,-13,cs),
(1755,-13,o),
(1879,91,o),
(1869,301,cs),
(1868,323,o),
(1852,343,o),
(1829,343,cs),
(1808,343,o),
(1787,326,o),
(1789,305,cs)
);
},
{
closed = 1;
nodes = (
(2404,136,o),
(2348,61,o),
(2232,61,cs),
(2159,61,o),
(2093,110,o),
(2093,176,cs),
(2093,214,o),
(2101,244,o),
(2255,340,cs),
(2324,383,o),
(2381,461,o),
(2381,534,cs),
(2381,626,o),
(2317,701,o),
(2216,701,cs),
(2139,701,o),
(2058,658,o),
(2058,529,cs),
(2058,409,o),
(2176,303,o),
(2363,132,cs),
(2401,98,o),
(2451,48,o),
(2495,6,cs),
(2502,-1,o),
(2512,-5,o),
(2523,-5,cs),
(2546,-5,o),
(2564,14,o),
(2564,36,cs),
(2564,48,o),
(2559,59,o),
(2551,66,cs),
(2507,108,o),
(2456,158,o),
(2418,193,cs),
(2232,364,o),
(2140,428,o),
(2140,547,cs),
(2140,589,o),
(2164,624,o),
(2216,624,cs),
(2277,624,o),
(2299,586,o),
(2299,547,cs),
(2299,493,o),
(2275,448,o),
(2207,404,cs),
(2033,292,o),
(2011,247,o),
(2011,176,cs),
(2011,65,o),
(2092,-14,o),
(2231,-14,cs),
(2402,-14,o),
(2484,97,o),
(2484,301,cs),
(2484,324,o),
(2468,346,o),
(2444,346,cs),
(2424,346,o),
(2404,330,o),
(2404,310,cs)
);
}
);
width = 2609;
}
);
unicode = 38;
},
{
glyphname = percent;
lastChange = "2021-07-06 21:24:01 +0000";
layers = (
{
background = {
shapes = (
{
closed = 1;
nodes = (
(289,373,o),
(366,450,o),
(366,544,cs),
(366,638,o),
(289,715,o),
(195,715,cs),
(101,715,o),
(24,638,o),
(24,544,cs),
(24,450,o),
(101,373,o),
(195,373,cs)
);
}
);
};
layerId = "65988B1E-DCE2-4AC3-A6FF-994A1050067D";
shapes = (
{
closed = 1;
nodes = (
(657,651,ls),
(661,657,o),
(664,665,o),
(664,673,cs),
(664,695,o),
(647,712,o),
(625,712,cs),
(612,712,o),
(600,706,o),
(593,696,cs),
(138,46,ls),
(134,40,o),
(131,32,o),
(131,24,cs),
(131,2,o),
(148,-15,o),
(170,-15,cs),
(183,-15,o),
(195,-9,o),
(202,1,cs)
);
},
{
closed = 1;
nodes = (
(696,-13,o),
(773,65,o),
(773,158,cs),
(773,252,o),
(696,329,o),
(602,329,cs),
(509,329,o),
(432,252,o),
(432,158,cs),
(432,65,o),
(509,-13,o),
(602,-13,cs)
);
},
{
closed = 1;
nodes = (
(551,65,o),
(513,107,o),
(513,158,cs),
(513,211,o),
(551,251,o),
(602,251,cs),
(655,251,o),
(691,211,o),
(691,158,cs),
(691,107,o),
(655,65,o),
(602,65,cs)
);
},
{
closed = 1;
nodes = (
(286,373,o),
(363,451,o),
(363,544,cs),
(363,638,o),
(286,715,o),
(192,715,cs),
(99,715,o),
(22,638,o),
(22,544,cs),
(22,451,o),
(99,373,o),
(192,373,cs)
);
},
{
closed = 1;
nodes = (
(141,451,o),
(103,493,o),
(103,544,cs),
(103,597,o),
(141,637,o),
(192,637,cs),
(245,637,o),
(281,597,o),
(281,544,cs),
(281,493,o),
(245,451,o),
(192,451,cs)
);
}
);
width = 797;
}
);
unicode = 37;
},
{
glyphname = dotaccentcomb;
lastChange = "2021-07-10 02:48:28 +0000";
layers = (
{
layerId = "65988B1E-DCE2-4AC3-A6FF-994A1050067D";
shapes = (
{
closed = 1;
nodes = (
(155,657,ls),
(155,679,o),
(137,697,o),
(110,697,cs),
(83,697,o),
(65,679,o),
(65,657,cs),
(65,638,ls),
(65,616,o),
(83,598,o),
(110,598,cs),
(137,598,o),
(155,616,o),
(155,638,cs)
);
}
);
width = 210;
}
);
unicode = 775;
},
{
glyphname = tildecomb;
lastChange = "2021-07-12 15:00:05 +0000";
layers = (
{
anchors = (
{
name = _top;
pos = (216,515);
},
{
name = top;
pos = (216,697);
}
);
layerId = "65988B1E-DCE2-4AC3-A6FF-994A1050067D";
shapes = (
{
attr = {
lineCapEnd = "1";
lineCapStart = "1";
strokeHeight = 80;
strokeWidth = 80;
};
closed = 0;
nodes = (
(100,631,l),
(106,657,o),
(121,688,o),
(162,688,cs),
(185,688,o),
(201,675,o),
(214,662,cs),
(229,648,o),
(248,631,o),
(270,631,cs),
(309,631,o),
(326,671,o),
(332,688,cs)
);
}
);
width = 432;
}
);
unicode = 771;
},
{
glyphname = tilde;
lastChange = "2021-07-12 15:00:11 +0000";
layers = (
{
layerId = "65988B1E-DCE2-4AC3-A6FF-994A1050067D";
shapes = (
{
attr = {
lineCapEnd = "1";
lineCapStart = "1";
strokeHeight = 80;
strokeWidth = 80;
};
closed = 0;
nodes = (
(100,631,l),
(106,657,o),
(121,688,o),
(162,688,cs),
(185,688,o),
(201,675,o),
(214,662,cs),
(229,648,o),
(248,631,o),
(270,631,cs),
(309,631,o),
(326,671,o),
(332,688,cs)
);
}
